<svg width="56" height="57" viewBox="0 0 56 57" fill="none" xmlns="http://www.w3.org/2000/svg">
<path d="M0 28.333C0 12.869 12.536 0.333008 28 0.333008C43.464 0.333008 56 12.869 56 28.333C56 43.797 43.464 56.333 28 56.333C12.536 56.333 0 43.797 0 28.333Z" fill="#D1E9FF"/>
<path d="M24.6047 24.8327C24.879 24.053 25.4204 23.3955 26.133 22.9767C26.8456 22.5579 27.6834 22.4048 28.498 22.5445C29.3127 22.6842 30.0516 23.1078 30.5839 23.7401C31.1162 24.3725 31.4076 25.1728 31.4063 25.9993C31.4063 28.3327 27.9063 29.4993 27.9063 29.4993M27.9997 34.166H28.0113M39.6663 28.3327C39.6663 34.776 34.443 39.9993 27.9997 39.9993C21.5564 39.9993 16.333 34.776 16.333 28.3327C16.333 21.8894 21.5564 16.666 27.9997 16.666C34.443 16.666 39.6663 21.8894 39.6663 28.3327Z" stroke="#1570EF" stroke-width="2" stroke-linecap="round" stroke-linejoin="round"/>
</svg>
