<svg width="48" height="50" viewBox="0 0 48 50" fill="none" xmlns="http://www.w3.org/2000/svg">
<path fill-rule="evenodd" clip-rule="evenodd" d="M16.0833 0.100006H31.9452C32.4774 0.100006 32.9133 0.53624 32.9133 1.06999V13.7244C32.9399 14.2135 33.28 14.5404 33.6698 14.5548H46.8656C47.4895 14.5548 47.9996 15.0659 47.9996 15.691V34.3085C47.9996 34.9336 47.4895 35.4447 46.8656 35.4447H33.678C33.2431 35.4632 32.9322 35.7804 32.9133 36.2767V48.93C32.9133 49.4633 32.4774 49.9 31.9452 49.9H16.0833C15.5506 49.9 15.1152 49.4633 15.1152 48.93V36.2685C15.0266 35.7814 14.77 35.4745 14.3515 35.4447H1.16237C0.539002 35.4447 0.0283203 34.9336 0.0283203 34.3085V15.691C0.0283203 15.0659 0.539002 14.5548 1.16237 14.5548H14.3597C14.7756 14.5229 15.0814 14.2186 15.1152 13.7326V1.06999C15.1152 0.53624 15.5506 0.100006 16.0833 0.100006Z" fill="#FF4736"/>
<path d="M9.24982 17.2178C9.51976 17.2178 9.76409 17.3277 9.94132 17.5052L9.94183 17.5063C10.1191 17.6833 10.2287 17.9286 10.2287 18.1986C10.2287 18.4685 10.1191 18.7133 9.94183 18.8909L9.94132 18.8919C9.76409 19.069 9.51976 19.1788 9.24982 19.1788C8.98039 19.1788 8.73607 19.069 8.55884 18.8919L8.55833 18.8909C8.3811 18.7133 8.27148 18.4685 8.27148 18.1986C8.27148 17.9286 8.3811 17.6833 8.55833 17.5063L8.55884 17.5052C8.73607 17.3277 8.98039 17.2178 9.24982 17.2178ZM9.64064 17.807C9.54076 17.7074 9.40246 17.6459 9.24982 17.6459C9.09718 17.6459 8.95939 17.7074 8.85951 17.807C8.76014 17.9071 8.69816 18.0457 8.69816 18.1986C8.69816 18.3515 8.76014 18.4901 8.85951 18.5897C8.95939 18.6897 9.09718 18.7513 9.24982 18.7513C9.40246 18.7513 9.54076 18.6897 9.64064 18.5897C9.74002 18.4901 9.80199 18.3515 9.80199 18.1986C9.80199 18.0457 9.74002 17.9071 9.64064 17.807Z" fill="#C41E0F"/>
<path d="M8.48508 18.4126H0.0380859V17.9846H8.48508V18.4126Z" fill="#C41E0F"/>
<path d="M6.30939 20.9607C6.57882 20.9607 6.82315 21.0706 7.00038 21.2476L7.0014 21.2486C7.17863 21.4262 7.28824 21.671 7.28824 21.941C7.28824 22.2114 7.17863 22.4562 7.0014 22.6338L7.00038 22.6343C6.82315 22.8119 6.57882 22.9217 6.30939 22.9217C6.03997 22.9217 5.79564 22.8119 5.61841 22.6343L5.61738 22.6338C5.44067 22.4562 5.33105 22.2114 5.33105 21.941C5.33105 21.671 5.44067 21.4262 5.61738 21.2486L5.61841 21.2476C5.79564 21.0706 6.03997 20.9607 6.30939 20.9607ZM6.70021 21.5499C6.60033 21.4498 6.46203 21.3882 6.30939 21.3882C6.15675 21.3882 6.01845 21.4498 5.91908 21.5499C5.8192 21.65 5.75773 21.788 5.75773 21.941C5.75773 22.0939 5.8192 22.2325 5.91908 22.3326C6.01845 22.4321 6.15675 22.4937 6.30939 22.4937C6.46203 22.4937 6.60033 22.4321 6.70021 22.3326C6.79959 22.2325 6.86105 22.0939 6.86105 21.941C6.86105 21.788 6.79959 21.65 6.70021 21.5499Z" fill="#C41E0F"/>
<path d="M5.60111 22.155H0V21.7275H5.60111V22.155Z" fill="#C41E0F"/>
<path d="M0.0283203 25.5037H8.68891V23.2548L18.5763 13.2158V4.42181H19.0029V13.3898L9.1161 23.4288V25.9312H0.0283203V25.5037Z" fill="#C41E0F"/>
<path d="M18.8944 2.70816C19.1638 2.70816 19.4086 2.81799 19.5858 2.99505L19.5864 2.99608C19.7636 3.17365 19.8732 3.41845 19.8732 3.6884C19.8732 3.95887 19.7636 4.20367 19.5864 4.38125L19.5858 4.38176C19.4086 4.55933 19.1638 4.66916 18.8944 4.66916C18.6249 4.66916 18.3806 4.55933 18.2034 4.38176L18.2023 4.38125C18.0256 4.20367 17.916 3.95887 17.916 3.6884C17.916 3.41845 18.0256 3.17365 18.2023 2.99608L18.2034 2.99505C18.3806 2.81799 18.6249 2.70816 18.8944 2.70816ZM19.2852 3.29733C19.1853 3.19726 19.047 3.13567 18.8944 3.13567C18.7417 3.13567 18.6039 3.19726 18.504 3.29733C18.4042 3.39741 18.3427 3.53547 18.3427 3.6884C18.3427 3.84134 18.4042 3.97991 18.504 4.07999C18.6039 4.17955 18.7417 4.24114 18.8944 4.24114C19.047 4.24114 19.1853 4.17955 19.2852 4.07999C19.3845 3.97991 19.446 3.84134 19.446 3.6884C19.446 3.53547 19.3845 3.39741 19.2852 3.29733Z" fill="#C41E0F"/>
<path d="M0.0498047 29.3539H3.84842L7.17016 32.6718H8.88353V33.0993H6.99549L3.67426 29.7814H0.0498047V29.3539Z" fill="#C41E0F"/>
<path d="M9.6976 31.9631C9.96703 31.9631 10.2114 32.0729 10.3886 32.2505L10.3896 32.251C10.5663 32.4286 10.6759 32.6734 10.6759 32.9438C10.6759 33.2138 10.5663 33.4586 10.3896 33.6362L10.3886 33.6367C10.2114 33.8142 9.96703 33.9241 9.6976 33.9241C9.42817 33.9241 9.18384 33.8142 9.00662 33.6367L9.00559 33.6362C8.82836 33.4586 8.71875 33.2138 8.71875 32.9438C8.71875 32.6734 8.82836 32.4286 9.00559 32.251L9.00662 32.2505C9.18384 32.0729 9.42817 31.9631 9.6976 31.9631ZM10.0879 32.5522C9.98854 32.4527 9.85024 32.3906 9.6976 32.3906C9.54496 32.3906 9.40666 32.4527 9.30678 32.5522C9.20741 32.6523 9.14594 32.7904 9.14594 32.9438C9.14594 33.0968 9.20741 33.2348 9.30678 33.3349C9.40666 33.4345 9.54496 33.4966 9.6976 33.4966C9.85024 33.4966 9.98854 33.4345 10.0879 33.3349C10.1878 33.2348 10.2493 33.0968 10.2493 32.9438C10.2493 32.7904 10.1878 32.6523 10.0879 32.5522Z" fill="#C41E0F"/>
<path d="M4.07416 25.5227L7.987 29.4632H10.9865L12.2912 30.7355L11.9941 31.0408L10.815 29.8907H7.81182L3.77246 25.8235L4.07416 25.5227Z" fill="#C41E0F"/>
<path d="M12.6873 30.505C12.9567 30.505 13.2016 30.6149 13.3783 30.7924L13.3793 30.7935C13.5566 30.971 13.6662 31.2158 13.6662 31.4858C13.6662 31.7557 13.5566 32.0005 13.3793 32.1781L13.3783 32.1791C13.2016 32.3562 12.9567 32.466 12.6873 32.466C12.4179 32.466 12.1736 32.3562 11.9963 32.1791L11.9953 32.1781C11.8186 32.0005 11.709 31.7557 11.709 31.4858C11.709 31.2158 11.8186 30.971 11.9953 30.7935L11.9963 30.7924C12.1736 30.6149 12.4179 30.505 12.6873 30.505ZM13.0781 31.0942C12.9783 30.9946 12.84 30.9331 12.6873 30.9331C12.5347 30.9331 12.3964 30.9946 12.297 31.0942C12.1971 31.1943 12.1357 31.3329 12.1357 31.4858C12.1357 31.6387 12.1971 31.7773 12.297 31.8769C12.3964 31.9769 12.5347 32.0385 12.6873 32.0385C12.84 32.0385 12.9783 31.9769 13.0781 31.8769C13.1775 31.7773 13.239 31.6387 13.239 31.4858C13.239 31.3329 13.1775 31.1943 13.0781 31.0942Z" fill="#C41E0F"/>
<path d="M11.2166 24.9926C11.486 24.9926 11.7309 25.1024 11.9076 25.2794L11.9086 25.2805C12.0859 25.458 12.1955 25.7028 12.1955 25.9728C12.1955 26.2428 12.0859 26.4876 11.9086 26.6651L11.9076 26.6662C11.7309 26.8437 11.486 26.9536 11.2166 26.9536C10.9472 26.9536 10.7029 26.8437 10.5256 26.6662L10.5246 26.6651C10.3479 26.4876 10.2383 26.2428 10.2383 25.9728C10.2383 25.7028 10.3479 25.458 10.5246 25.2805L10.5256 25.2794C10.7029 25.1024 10.9472 24.9926 11.2166 24.9926ZM11.6074 25.5817C11.5076 25.4816 11.3693 25.4201 11.2166 25.4201C11.064 25.4201 10.9257 25.4816 10.8263 25.5817C10.7264 25.6813 10.665 25.8199 10.665 25.9728C10.665 26.1257 10.7264 26.2643 10.8263 26.3644C10.9257 26.4639 11.064 26.5255 11.2166 26.5255C11.3693 26.5255 11.5076 26.4639 11.6074 26.3644C11.7068 26.2643 11.7683 26.1257 11.7683 25.9728C11.7683 25.8199 11.7068 25.6813 11.6074 25.5817Z" fill="#C41E0F"/>
<path d="M11.0303 25.2066V23.5156L20.6052 13.7937L20.6011 7.06336L22.0128 5.74696V3.22296H22.4394V5.93172L21.0267 7.24966L21.0303 13.9692L11.457 23.6895V25.2066H11.0303Z" fill="#C41E0F"/>
<path d="M22.2986 1.43027C22.5681 1.43027 22.8129 1.5401 22.9896 1.71716L22.9907 1.71818C23.1679 1.89576 23.2775 2.14056 23.2775 2.41051C23.2775 2.68046 23.1679 2.92527 22.9907 3.10284L22.9896 3.10387C22.8129 3.28093 22.5681 3.39127 22.2986 3.39127C22.0292 3.39127 21.7849 3.28093 21.6077 3.10387L21.6066 3.10284C21.4299 2.92527 21.3203 2.68046 21.3203 2.41051C21.3203 2.14056 21.4299 1.89576 21.6066 1.71818L21.6077 1.71716C21.7849 1.5401 22.0292 1.43027 22.2986 1.43027ZM22.6895 2.01893C22.5896 1.91936 22.4513 1.85778 22.2986 1.85778C22.146 1.85778 22.0077 1.91936 21.9083 2.01893C21.8085 2.119 21.747 2.25757 21.747 2.41051C21.747 2.56345 21.8085 2.70202 21.9083 2.8021C22.0077 2.90166 22.146 2.96325 22.2986 2.96325C22.4513 2.96325 22.5896 2.90166 22.6895 2.8021C22.7888 2.70202 22.8503 2.56345 22.8503 2.41051C22.8503 2.25757 22.7888 2.119 22.6895 2.01893Z" fill="#C41E0F"/>
<path d="M27.3105 3.96551L23.7291 7.58574L23.7327 14.992L15.5843 23.2845L15.5894 35.7696L15.299 36.2807L15.0137 35.921L15.1643 35.6561L15.1591 23.1095L23.3075 14.817L23.3034 7.41022L27.0088 3.66476L27.3105 3.96551Z" fill="#C41E0F"/>
<path d="M27.7572 2.24988C28.0266 2.24988 28.2709 2.35971 28.4482 2.53677L28.4492 2.53779C28.6259 2.71537 28.7355 2.96017 28.7355 3.23012C28.7355 3.50007 28.6259 3.74539 28.4492 3.92245L28.4482 3.92348C28.2709 4.10105 28.0266 4.21088 27.7572 4.21088C27.4877 4.21088 27.2429 4.10105 27.0662 3.92348L27.0652 3.92245C26.8879 3.74539 26.7783 3.50007 26.7783 3.23012C26.7783 2.96017 26.8879 2.71537 27.0652 2.53779L27.0662 2.53677C27.2429 2.35971 27.4877 2.24988 27.7572 2.24988ZM28.1475 2.83905C28.0481 2.73897 27.9098 2.67739 27.7572 2.67739C27.6045 2.67739 27.4662 2.73897 27.3663 2.83905C27.267 2.93861 27.2055 3.07718 27.2055 3.23012C27.2055 3.38306 27.267 3.52163 27.3663 3.62171C27.4662 3.72127 27.6045 3.78286 27.7572 3.78286C27.9098 3.78286 28.0481 3.72127 28.1475 3.62171C28.2474 3.52163 28.3088 3.38306 28.3088 3.23012C28.3088 3.07718 28.2474 2.93861 28.1475 2.83905Z" fill="#C41E0F"/>
<path d="M29.2965 7.23068L26.8281 9.62792L26.8322 15.1666L21.565 20.5738L21.2598 20.2761L26.407 14.9926L26.403 9.44675L28.9999 6.9248L29.2965 7.23068Z" fill="#C41E0F"/>
<path d="M29.7855 5.52725C30.0549 5.52725 30.2992 5.63708 30.4765 5.81465L30.4775 5.81568C30.6542 5.99325 30.7638 6.23806 30.7638 6.50801C30.7638 6.77796 30.6542 7.02277 30.4775 7.20034L30.4765 7.20137C30.2992 7.37843 30.0549 7.48825 29.7855 7.48825C29.5161 7.48825 29.2717 7.37843 29.0945 7.20137L29.0935 7.20034C28.9163 7.02277 28.8066 6.77796 28.8066 6.50801C28.8066 6.23806 28.9163 5.99325 29.0935 5.81568L29.0945 5.81465C29.2717 5.63708 29.5161 5.52725 29.7855 5.52725ZM30.1763 6.11643C30.0764 6.01686 29.9381 5.95528 29.7855 5.95528C29.6328 5.95528 29.4946 6.01686 29.3947 6.11643C29.2953 6.2165 29.2338 6.35507 29.2338 6.50801C29.2338 6.66095 29.2953 6.79952 29.3947 6.89959C29.4946 6.99916 29.6328 7.06074 29.7855 7.06074C29.9381 7.06074 30.0764 6.99916 30.1763 6.89959C30.2757 6.79952 30.3371 6.66095 30.3371 6.50801C30.3371 6.35507 30.2757 6.2165 30.1763 6.11643Z" fill="#C41E0F"/>
<path d="M20.766 20.0062C21.0354 20.0062 21.2797 20.116 21.4569 20.2931L21.458 20.2941C21.6347 20.4717 21.7443 20.7165 21.7443 20.9864C21.7443 21.2569 21.6347 21.5017 21.458 21.6793L21.4569 21.6798C21.2797 21.8574 21.0354 21.9672 20.766 21.9672C20.4965 21.9672 20.2517 21.8574 20.075 21.6798L20.074 21.6793C19.8967 21.5017 19.7871 21.2569 19.7871 20.9864C19.7871 20.7165 19.8967 20.4717 20.074 20.2941L20.075 20.2931C20.2517 20.116 20.4965 20.0062 20.766 20.0062ZM21.1563 20.5954C21.0569 20.4958 20.9186 20.4337 20.766 20.4337C20.6133 20.4337 20.475 20.4958 20.3751 20.5954C20.2758 20.6954 20.2143 20.8335 20.2143 20.9864C20.2143 21.1394 20.2758 21.2779 20.3751 21.378C20.475 21.4776 20.6133 21.5392 20.766 21.5392C20.9186 21.5392 21.0569 21.4776 21.1563 21.378C21.2562 21.2779 21.3176 21.1394 21.3176 20.9864C21.3176 20.8335 21.2562 20.6954 21.1563 20.5954Z" fill="#C41E0F"/>
<path d="M29.8489 11.9265L29.8525 17.2604L19.3423 27.9204L19.0391 27.6217L29.4274 17.0854L29.4238 11.9265H29.8489Z" fill="#C41E0F"/>
<path d="M29.6781 10.2581C29.9475 10.2581 30.1918 10.3679 30.3691 10.5455L30.3696 10.546C30.5468 10.7236 30.6564 10.9684 30.6564 11.2389C30.6564 11.5088 30.5468 11.7536 30.3696 11.9312L30.3691 11.9317C30.1918 12.1093 29.9475 12.2191 29.6781 12.2191C29.4081 12.2191 29.1638 12.1093 28.9866 11.9317L28.9861 11.9312C28.8088 11.7536 28.6992 11.5088 28.6992 11.2389C28.6992 10.9684 28.8088 10.7236 28.9861 10.546L28.9866 10.5455C29.1638 10.3679 29.4081 10.2581 29.6781 10.2581ZM30.0684 10.8473C29.9685 10.7477 29.8307 10.6856 29.6781 10.6856C29.5249 10.6856 29.3871 10.7477 29.2872 10.8473C29.1879 10.9474 29.1259 11.0854 29.1259 11.2389C29.1259 11.3918 29.1879 11.5299 29.2872 11.6299C29.3871 11.7295 29.5249 11.7916 29.6781 11.7916C29.8307 11.7916 29.9685 11.7295 30.0684 11.6299C30.1677 11.5299 30.2297 11.3918 30.2297 11.2389C30.2297 11.0854 30.1677 10.9474 30.0684 10.8473Z" fill="#C41E0F"/>
<path d="M18.6551 27.4109C18.9245 27.4109 19.1694 27.5207 19.3461 27.6983L19.3471 27.6988C19.5243 27.8764 19.6339 28.1212 19.6339 28.3916C19.6339 28.6616 19.5243 28.9064 19.3471 29.084L19.3461 29.085C19.1694 29.2621 18.9245 29.3719 18.6551 29.3719C18.3857 29.3719 18.1413 29.2621 17.9641 29.085L17.9631 29.084C17.7864 28.9064 17.6768 28.6616 17.6768 28.3916C17.6768 28.1212 17.7864 27.8764 17.9631 27.6988L17.9641 27.6983C18.1413 27.5207 18.3857 27.4109 18.6551 27.4109ZM19.0459 28.0001C18.946 27.9005 18.8077 27.8389 18.6551 27.8389C18.5025 27.8389 18.3642 27.9005 18.2648 28.0001C18.1649 28.1001 18.1034 28.2387 18.1034 28.3916C18.1034 28.5446 18.1649 28.6826 18.2648 28.7827C18.3642 28.8823 18.5025 28.9444 18.6551 28.9444C18.8077 28.9444 18.946 28.8823 19.0459 28.7827C19.1453 28.6826 19.2068 28.5446 19.2068 28.3916C19.2068 28.2387 19.1453 28.1001 19.0459 28.0001Z" fill="#C41E0F"/>
<path d="M18.6551 37.3211C18.9245 37.3211 19.1694 37.4309 19.3461 37.608L19.3471 37.609C19.5243 37.7866 19.6339 38.0314 19.6339 38.3013C19.6339 38.5718 19.5243 38.8166 19.3471 38.9942L19.3461 38.9947C19.1694 39.1722 18.9245 39.2821 18.6551 39.2821C18.3857 39.2821 18.1413 39.1722 17.9641 38.9947L17.9631 38.9942C17.7864 38.8166 17.6768 38.5718 17.6768 38.3013C17.6768 38.0314 17.7864 37.7866 17.9631 37.609L17.9641 37.608C18.1413 37.4309 18.3857 37.3211 18.6551 37.3211ZM19.0459 37.9102C18.946 37.8107 18.8077 37.7486 18.6551 37.7486C18.5025 37.7486 18.3642 37.8107 18.2648 37.9102C18.1649 38.0103 18.1034 38.1484 18.1034 38.3013C18.1034 38.4543 18.1649 38.5928 18.2648 38.6929C18.3642 38.7925 18.5025 38.8541 18.6551 38.8541C18.8077 38.8541 18.946 38.7925 19.0459 38.6929C19.1453 38.5928 19.2068 38.4543 19.2068 38.3013C19.2068 38.1484 19.1453 38.0103 19.0459 37.9102Z" fill="#C41E0F"/>
<path d="M18.4424 37.5351V29.1579H18.8696V37.5351H18.4424Z" fill="#C41E0F"/>
<path d="M18.6551 42.5687C18.9245 42.5687 19.1694 42.6786 19.3461 42.8561L19.3471 42.8566C19.5243 43.0342 19.6339 43.279 19.6339 43.5495C19.6339 43.8194 19.5243 44.0642 19.3471 44.2418L19.3461 44.2428C19.1694 44.4199 18.9245 44.5297 18.6551 44.5297C18.3857 44.5297 18.1413 44.4199 17.9641 44.2428L17.9631 44.2418C17.7864 44.0642 17.6768 43.8194 17.6768 43.5495C17.6768 43.279 17.7864 43.0342 17.9631 42.8566L17.9641 42.8561C18.1413 42.6786 18.3857 42.5687 18.6551 42.5687ZM19.0459 43.1579C18.946 43.0583 18.8077 42.9967 18.6551 42.9967C18.5025 42.9967 18.3642 43.0583 18.2648 43.1579C18.1649 43.258 18.1034 43.3965 18.1034 43.5495C18.1034 43.7024 18.1649 43.8405 18.2648 43.9406C18.3642 44.0401 18.5025 44.1022 18.6551 44.1022C18.8077 44.1022 18.946 44.0401 19.0459 43.9406C19.1453 43.8405 19.2068 43.7024 19.2068 43.5495C19.2068 43.3965 19.1453 43.258 19.0459 43.1579Z" fill="#C41E0F"/>
<path d="M32.4102 18.4922L22.8901 28.1473V39.6516L19.3916 43.2041L19.0879 42.9054L22.4634 39.4781V27.9739L32.1069 18.193L32.4102 18.4922Z" fill="#C41E0F"/>
<path d="M32.8509 16.8914C33.1203 16.8914 33.3647 17.0012 33.5419 17.1788L33.5429 17.1793C33.7196 17.3569 33.8293 17.6017 33.8293 17.8717C33.8293 18.1421 33.7196 18.3869 33.5429 18.5645L33.5419 18.565C33.3647 18.7426 33.1203 18.8524 32.8509 18.8524C32.5815 18.8524 32.3367 18.7426 32.1599 18.565L32.1589 18.5645C31.9817 18.3869 31.8721 18.1421 31.8721 17.8717C31.8721 17.6017 31.9817 17.3569 32.1589 17.1793L32.1599 17.1788C32.3367 17.0012 32.5815 16.8914 32.8509 16.8914ZM33.2412 17.4806C33.1419 17.381 33.0036 17.3189 32.8509 17.3189C32.6983 17.3189 32.56 17.381 32.4601 17.4806C32.3607 17.5807 32.2993 17.7187 32.2993 17.8717C32.2993 18.0246 32.3607 18.1632 32.4601 18.2632C32.56 18.3628 32.6983 18.4244 32.8509 18.4244C33.0036 18.4244 33.1419 18.3628 33.2412 18.2632C33.3411 18.1632 33.4026 18.0246 33.4026 17.8717C33.4026 17.7187 33.3411 17.5807 33.2412 17.4806Z" fill="#C41E0F"/>
<path d="M35.3757 22.7472L25.2655 32.9992V36.1165H24.8389V32.8258L35.0725 22.4485L35.3757 22.7472Z" fill="#C41E0F"/>
<path d="M25.0589 35.9128C25.3284 35.9128 25.5727 36.0226 25.7499 36.1997L25.7509 36.2007C25.9277 36.3783 26.0373 36.6231 26.0373 36.8931C26.0373 37.163 25.9277 37.4078 25.7509 37.5854L25.7499 37.5864C25.5727 37.764 25.3284 37.8738 25.0589 37.8738C24.789 37.8738 24.5447 37.764 24.3674 37.5864L24.3669 37.5854C24.1897 37.4078 24.0801 37.163 24.0801 36.8931C24.0801 36.6231 24.1897 36.3783 24.3669 36.2007L24.3674 36.1997C24.5447 36.0226 24.789 35.9128 25.0589 35.9128ZM25.4492 36.502C25.3494 36.4019 25.2116 36.3403 25.0589 36.3403C24.9063 36.3403 24.768 36.4019 24.6681 36.502C24.5687 36.6015 24.5073 36.7401 24.5073 36.8931C24.5073 37.046 24.5687 37.1846 24.6681 37.2846C24.768 37.3842 24.9063 37.4458 25.0589 37.4458C25.2116 37.4458 25.3494 37.3842 25.4492 37.2846C25.5491 37.1846 25.6106 37.046 25.6106 36.8931C25.6106 36.7401 25.5491 36.6015 25.4492 36.502Z" fill="#C41E0F"/>
<path d="M35.8675 21.0038C36.1369 21.0038 36.3813 21.1137 36.5585 21.2907L36.559 21.2918C36.7362 21.4693 36.8459 21.7141 36.8459 21.9841C36.8459 22.2546 36.7362 22.4994 36.559 22.6769L36.5585 22.6774C36.3813 22.855 36.1369 22.9648 35.8675 22.9648C35.5976 22.9648 35.3533 22.855 35.176 22.6774L35.1755 22.6769C34.9983 22.4994 34.8887 22.2546 34.8887 21.9841C34.8887 21.7141 34.9983 21.4693 35.1755 21.2918L35.176 21.2907C35.3533 21.1137 35.5976 21.0038 35.8675 21.0038ZM36.2578 21.593C36.1579 21.4929 36.0202 21.4314 35.8675 21.4314C35.7144 21.4314 35.5766 21.4929 35.4767 21.593C35.3773 21.6931 35.3153 21.8312 35.3153 21.9841C35.3153 22.137 35.3773 22.2756 35.4767 22.3757C35.5766 22.4752 35.7144 22.5368 35.8675 22.5368C36.0202 22.5368 36.1579 22.4752 36.2578 22.3757C36.3572 22.2756 36.4192 22.137 36.4192 21.9841C36.4192 21.8312 36.3572 21.6931 36.2578 21.593Z" fill="#C41E0F"/>
<path d="M22.6025 49.9V43.9831L27.4799 38.9736V35.4514L32.9232 29.9969L33.2249 30.2997L27.9066 35.6284V39.146L23.0292 44.1555V49.9H22.6025Z" fill="#C41E0F"/>
<path d="M33.66 28.5794C33.9294 28.5794 34.1742 28.6892 34.351 28.8668L34.352 28.8673C34.5292 29.0449 34.6388 29.2897 34.6388 29.5602C34.6388 29.8301 34.5292 30.0749 34.352 30.2525L34.351 30.253C34.1742 30.4306 33.9294 30.5404 33.66 30.5404C33.3906 30.5404 33.1462 30.4306 32.969 30.253L32.968 30.2525C32.7913 30.0749 32.6816 29.8301 32.6816 29.5602C32.6816 29.2897 32.7913 29.0449 32.968 28.8673L32.969 28.8668C33.1462 28.6892 33.3906 28.5794 33.66 28.5794ZM34.0508 29.1686C33.9509 29.069 33.8126 29.0069 33.66 29.0069C33.5073 29.0069 33.369 29.069 33.2697 29.1686C33.1698 29.2687 33.1083 29.4067 33.1083 29.5602C33.1083 29.7131 33.1698 29.8512 33.2697 29.9512C33.369 30.0508 33.5073 30.1129 33.66 30.1129C33.8126 30.1129 33.9509 30.0508 34.0508 29.9512C34.1502 29.8512 34.2116 29.7131 34.2116 29.5602C34.2116 29.4067 34.1502 29.2687 34.0508 29.1686Z" fill="#C41E0F"/>
<path d="M28.1523 45.7496V42.7745L29.9282 40.9952V35.5813L39.7679 25.5715V18.9079H40.1946V25.7449L30.3549 35.7547V41.1722L28.579 42.9516V45.7496H28.1523Z" fill="#C41E0F"/>
<path d="M39.9622 17.1204C40.2317 17.1204 40.476 17.2302 40.6532 17.4078L40.6543 17.4083C40.831 17.5858 40.9406 17.8307 40.9406 18.1011C40.9406 18.3711 40.831 18.6159 40.6543 18.7934L40.6532 18.7945C40.476 18.9715 40.2317 19.0814 39.9622 19.0814C39.6923 19.0814 39.448 18.9715 39.2708 18.7945L39.2702 18.7934C39.093 18.6159 38.9834 18.3711 38.9834 18.1011C38.9834 17.8307 39.093 17.5858 39.2702 17.4083L39.2708 17.4078C39.448 17.2302 39.6923 17.1204 39.9622 17.1204ZM40.3526 17.7095C40.2527 17.61 40.1149 17.5484 39.9622 17.5484C39.8096 17.5484 39.6713 17.61 39.5714 17.7095C39.4721 17.8096 39.4106 17.9482 39.4106 18.1011C39.4106 18.2541 39.4721 18.3921 39.5714 18.4922C39.6713 18.5918 39.8096 18.6539 39.9622 18.6539C40.1149 18.6539 40.2527 18.5918 40.3526 18.4922C40.4519 18.3921 40.5139 18.2541 40.5139 18.1011C40.5139 17.9482 40.4519 17.8096 40.3526 17.7095Z" fill="#C41E0F"/>
<path d="M28.3572 45.609C28.6267 45.609 28.8715 45.7189 29.0482 45.8964L29.0493 45.8975C29.2265 46.075 29.3361 46.3198 29.3361 46.5898C29.3361 46.8597 29.2265 47.1046 29.0493 47.2821L29.0482 47.2832C28.8715 47.4602 28.6267 47.57 28.3572 47.57C28.0878 47.57 27.8435 47.4602 27.6663 47.2832L27.6652 47.2821C27.4885 47.1046 27.3789 46.8597 27.3789 46.5898C27.3789 46.3198 27.4885 46.075 27.6652 45.8975L27.6663 45.8964C27.8435 45.7189 28.0878 45.609 28.3572 45.609ZM28.7481 46.1982C28.6482 46.0986 28.5099 46.0371 28.3572 46.0371C28.2046 46.0371 28.0668 46.0986 27.9669 46.1982C27.8671 46.2983 27.8056 46.4369 27.8056 46.5898C27.8056 46.7427 27.8671 46.8813 27.9669 46.9809C28.0668 47.0809 28.2046 47.1425 28.3572 47.1425C28.5099 47.1425 28.6482 47.0809 28.7481 46.9809C28.8474 46.8813 28.9089 46.7427 28.9089 46.5898C28.9089 46.4369 28.8474 46.2983 28.7481 46.1982Z" fill="#C41E0F"/>
<path d="M40.3626 30.0919C40.6321 30.0919 40.8764 30.2017 41.0536 30.3793L41.0541 30.3803C41.2314 30.5579 41.341 30.8027 41.341 31.0726C41.341 31.3426 41.2314 31.5874 41.0541 31.765L41.0536 31.766C40.8764 31.9431 40.6321 32.0529 40.3626 32.0529C40.0927 32.0529 39.8484 31.9431 39.6711 31.766L39.6706 31.765C39.4934 31.5874 39.3838 31.3426 39.3838 31.0726C39.3838 30.8027 39.4934 30.5579 39.6706 30.3803L39.6711 30.3793C39.8484 30.2017 40.0927 30.0919 40.3626 30.0919ZM40.7529 30.6811C40.6531 30.5815 40.5153 30.5199 40.3626 30.5199C40.2095 30.5199 40.0717 30.5815 39.9718 30.6811C39.8724 30.7811 39.8105 30.9197 39.8105 31.0726C39.8105 31.2256 39.8724 31.3642 39.9718 31.4642C40.0717 31.5638 40.2095 31.6254 40.3626 31.6254C40.5153 31.6254 40.6531 31.5638 40.7529 31.4642C40.8523 31.3642 40.9143 31.2256 40.9143 31.0726C40.9143 30.9197 40.8523 30.7811 40.7529 30.6811Z" fill="#C41E0F"/>
<path d="M40.0187 31.7347L36.4296 35.4442H35.8369L39.7134 31.4376L40.0187 31.7347Z" fill="#C41E0F"/>
<path fill-rule="evenodd" clip-rule="evenodd" d="M15.0137 35.9211C15.2759 35.8815 15.3743 36.0088 15.299 36.2808C15.2457 36.3547 15.1848 36.4558 15.1156 36.5852C15.1258 36.3244 15.1069 36.1063 15.0137 35.9211Z" fill="#C41E0F"/>
<path fill-rule="evenodd" clip-rule="evenodd" d="M17.7588 29.8794H19.4568L20.0607 33.0126C20.0771 33.1538 20.1631 33.2954 20.3194 33.4422C20.4705 33.5895 20.5996 33.6967 20.7076 33.7701C20.9714 33.9626 21.268 34.1432 21.581 34.3131C21.8985 34.4825 22.2274 34.6354 22.567 34.7658C22.9066 34.9013 23.2626 35.0029 23.6293 35.0881C23.7389 35.1112 23.8491 35.1312 23.9592 35.1476V26.6662C23.678 26.5646 23.4004 26.4619 23.1222 26.3624C22.7288 26.2207 22.3462 26.0739 21.9687 25.9097C20.8101 25.4062 19.8988 24.6995 19.2411 23.7834C18.5783 22.873 18.2495 21.7644 18.2495 20.4696C18.2495 19.6043 18.4272 18.8011 18.7883 18.0549C19.1443 17.3138 19.6402 16.6692 20.2656 16.1262C20.8961 15.5838 21.6347 15.1593 22.4809 14.8596C22.9527 14.6928 23.446 14.5712 23.9592 14.4968V12.2592H26.3287V14.4424C26.529 14.4557 26.7272 14.4721 26.9229 14.4922C27.4725 14.543 28.0006 14.622 28.5128 14.7185C29.0194 14.8145 29.5101 14.9217 29.9844 15.0408C30.4587 15.1593 30.9172 15.2784 31.3592 15.3857V20.9217H29.6771L29.1003 17.9759C29.0788 17.8342 28.9979 17.6931 28.8473 17.5571C28.7013 17.4216 28.5666 17.3138 28.4534 17.2348C28.2813 17.1049 28.0872 16.9802 27.8659 16.8673C27.6451 16.7544 27.3972 16.6523 27.1329 16.562C26.8804 16.4773 26.614 16.4075 26.3287 16.3567V24.136C26.6755 24.2664 27.0315 24.4019 27.3916 24.5466C27.785 24.7052 28.2004 24.8751 28.6424 25.067C29.1218 25.2764 29.591 25.5366 30.049 25.8363C30.5074 26.136 30.9223 26.5091 31.2942 26.9443C31.6609 27.3801 31.9575 27.8948 32.1783 28.483C32.3995 29.0706 32.5071 29.7609 32.5071 30.5579C32.5071 31.378 32.3565 32.1812 32.0543 32.9613C31.7526 33.7419 31.2783 34.4317 30.6314 35.0311C29.9844 35.6362 29.149 36.1227 28.1302 36.4902C27.5872 36.6862 26.9859 36.8289 26.3287 36.9197V39.0593H23.9592V37.0255C23.6196 37.0075 23.2692 36.9726 22.9122 36.9202C22.3734 36.8351 21.8181 36.7334 21.2521 36.6036C20.6861 36.4676 20.1201 36.3208 19.5485 36.1566C18.9774 35.9872 18.4114 35.823 17.8454 35.6644L17.7588 29.8794ZM26.3287 35.0511C26.4783 35.0193 26.6243 34.9823 26.7662 34.9408C27.3649 34.7658 27.8715 34.5112 28.2813 34.1776C28.6906 33.8492 29.0086 33.4422 29.2299 32.9731C29.4507 32.4979 29.5588 31.9662 29.5588 31.3724C29.5588 30.4845 29.3052 29.7496 28.7986 29.1614C28.2921 28.5733 27.6129 28.0924 26.7554 27.7193C26.6135 27.6567 26.4706 27.5956 26.3287 27.5371V35.0511ZM23.9592 16.3972C23.7963 16.4301 23.6391 16.4701 23.489 16.5168C22.9552 16.6749 22.5024 16.8956 22.1362 17.1727C21.7695 17.4555 21.4893 17.7834 21.2951 18.1565C21.101 18.5353 21.0093 18.9428 21.0093 19.3836C21.0093 19.7742 21.0524 20.1586 21.144 20.5261C21.2357 20.8992 21.392 21.2497 21.6184 21.5838C21.8448 21.9174 22.147 22.2227 22.524 22.5112C22.8994 22.7981 23.3814 23.0511 23.9592 23.2707V16.3972Z" fill="#C41E0F"/>
<path fill-rule="evenodd" clip-rule="evenodd" d="M16.7109 29.1984H18.4089L19.0128 32.3311C19.0287 32.4722 19.1153 32.6139 19.2715 32.7606C19.4226 32.9079 19.5517 33.0152 19.6598 33.0891C19.9236 33.281 20.2201 33.4622 20.5326 33.6316C20.8507 33.8014 21.1795 33.9539 21.5191 34.0842C21.8587 34.2197 22.2147 34.3218 22.581 34.4065C22.6906 34.4296 22.8007 34.4496 22.9113 34.4661V25.9846C22.6296 25.883 22.352 25.7804 22.0744 25.6808C21.681 25.5392 21.2984 25.3924 20.9209 25.2281C19.7622 24.7252 18.851 24.018 18.1933 23.1019C17.5305 22.1914 17.2016 21.0834 17.2016 19.788C17.2016 18.9228 17.3794 18.1201 17.7405 17.3734C18.0965 16.6328 18.5923 15.9882 19.2177 15.4452C19.8483 14.9022 20.5869 14.4783 21.4331 14.1786C21.9048 14.0113 22.3981 13.8902 22.9113 13.8152V11.5776H25.2804V13.7613C25.4811 13.7742 25.6794 13.7906 25.8745 13.8106C26.4247 13.8619 26.9527 13.941 27.465 14.0369C27.9716 14.1329 28.4623 14.2407 28.9366 14.3592C29.4109 14.4783 29.8688 14.5969 30.3109 14.7041V20.2407H28.6292L28.0525 17.2943C28.031 17.1527 27.95 17.0115 27.7989 16.8761C27.6535 16.7401 27.5188 16.6328 27.4056 16.5538C27.2329 16.4234 27.0393 16.2992 26.818 16.1858C26.5973 16.0729 26.3494 15.9713 26.0851 15.8804C25.8325 15.7957 25.5657 15.7259 25.2804 15.6756V23.4545C25.6276 23.5848 25.9836 23.7203 26.3437 23.8656C26.7371 24.0236 27.1525 24.1935 27.5946 24.386C28.074 24.5948 28.5432 24.855 29.0011 25.1548C29.4595 25.4545 29.8744 25.8276 30.2463 26.2633C30.6131 26.6985 30.9096 27.2133 31.1304 27.8014C31.3517 28.3896 31.4592 29.0793 31.4592 29.8769C31.4592 30.697 31.3081 31.4997 31.0064 32.2803C30.7048 33.0604 30.2304 33.7506 29.5835 34.3501C28.9366 34.9551 28.1011 35.4412 27.0823 35.8091C26.5394 36.0047 25.938 36.1479 25.2804 36.2387V38.3783H22.9113V36.3439C22.5717 36.3265 22.2214 36.291 21.8644 36.2387C21.325 36.154 20.7698 36.0519 20.2038 35.922C19.6378 35.7866 19.0718 35.6393 18.5006 35.4755C17.929 35.3057 17.363 35.1414 16.797 34.9834L16.7109 29.1984ZM25.2804 34.3701C25.4304 34.3377 25.5764 34.3013 25.7183 34.2592C26.3166 34.0842 26.8237 33.8297 27.2329 33.4961C27.6427 33.1681 27.9608 32.7606 28.1821 32.2916C28.4028 31.8163 28.5109 31.2851 28.5109 30.6913C28.5109 29.8035 28.2574 29.068 27.7508 28.4799C27.2437 27.8917 26.5645 27.4114 25.7075 27.0378C25.5651 26.9751 25.4228 26.9141 25.2804 26.8556V34.3701ZM22.9113 15.7157C22.7485 15.749 22.5912 15.7886 22.4411 15.8353C21.9074 15.9938 21.4546 16.214 21.0878 16.4911C20.7216 16.7739 20.4409 17.1019 20.2473 17.4755C20.0532 17.8542 19.9615 18.2612 19.9615 18.7026C19.9615 19.0926 20.0045 19.477 20.0962 19.8445C20.1879 20.2181 20.3441 20.5687 20.5705 20.9022C20.7969 21.2358 21.0986 21.5412 21.4761 21.8296C21.8516 22.1165 22.3336 22.37 22.9113 22.5897V15.7157Z" fill="#013D62"/>
</svg>
