<svg width="132" height="45" viewBox="0 0 132 45" fill="none" xmlns="http://www.w3.org/2000/svg">
<g clip-path="url(#clip0_297_8470)">
<path fill-rule="evenodd" clip-rule="evenodd" d="M57.0204 18.4252C57.6062 17.8958 57.8989 17.1774 57.8989 16.2701C57.8989 15.8102 57.8254 15.4007 57.6788 15.0419C57.5327 14.6859 57.3136 14.3771 57.0209 14.1165C56.7259 13.8531 56.3639 13.6456 55.9351 13.4931C55.5 13.3391 54.9963 13.2415 54.4241 13.2006L54.2866 13.1911V12.4519H52.786V13.1902L52.6495 13.2006C52.0742 13.2447 51.5682 13.345 51.1326 13.5012C50.7016 13.6551 50.34 13.8636 50.0473 14.1261C49.7564 14.3867 49.5382 14.695 49.393 15.0496C49.2469 15.4065 49.1738 15.8134 49.1738 16.2701C49.1738 16.727 49.2473 17.1339 49.3944 17.4898C49.5404 17.8436 49.7596 18.15 50.0514 18.4089C50.3463 18.67 50.7084 18.8775 51.1381 19.0305C51.5732 19.1857 52.0768 19.2857 52.6495 19.3297L52.786 19.3402V20.1307H54.2866V19.3379L54.426 19.3297C54.9981 19.2957 55.5013 19.2026 55.9356 19.05C56.3639 18.8997 56.7255 18.6913 57.0204 18.4252ZM55.2532 17.8344C55.0249 17.9226 54.7576 17.9843 54.4514 18.0206L54.2866 18.0397V14.5002L54.4518 14.5202C54.7517 14.5565 55.0149 14.6173 55.24 14.7032C55.4718 14.7913 55.6646 14.9061 55.8189 15.0473C56.1325 15.3335 56.2895 15.7376 56.2895 16.2602C56.2895 16.5168 56.2519 16.746 56.1774 16.9486C56.1007 17.1552 55.9855 17.3327 55.832 17.4803C55.6805 17.626 55.4873 17.7441 55.2532 17.8344ZM50.9008 16.9512C50.8227 16.7515 50.7837 16.5245 50.7837 16.2701C50.7837 16.0109 50.8205 15.7798 50.8944 15.5773C50.9702 15.3702 51.0845 15.194 51.237 15.0496C51.3872 14.907 51.5795 14.7917 51.8146 14.7032C52.0433 14.6173 52.3123 14.5565 52.6218 14.5202L52.786 14.5011V18.032L52.6186 18.0097C52.3224 17.9698 52.062 17.9062 51.8378 17.8185C51.6072 17.7286 51.4144 17.6133 51.2593 17.4735C51.1 17.3296 50.9802 17.1552 50.9008 16.9512ZM60.8564 12.7952H59.2171V19.787H60.8465L63.931 15.1808V19.787H65.5704V12.7952H63.9505L60.8564 17.4117V12.7952ZM73.6685 19.787V12.7952H71.9991V15.5332H69.0239V12.7952H67.3545V19.787H69.0239V16.9449H71.9991V19.787H73.6685ZM77.1609 18.3711H80.1992L80.7451 19.787H82.4661L79.5144 12.7952H77.7744L74.8323 19.787H76.5139L77.0597 18.3711H77.1609ZM78.7676 14.6146L79.7373 17.147H77.5212L78.6292 14.2541L78.7676 14.6146ZM89.9438 19.787V12.7952H88.2746V15.5332H85.2993V12.7952H83.63V19.787H85.2993V16.9449H88.2746V19.787H89.9438ZM93.9636 19.8164C94.2776 19.8941 94.6115 19.9328 94.9645 19.9328C95.2736 19.9328 95.5657 19.9046 95.8403 19.8478C96.1149 19.7915 96.3744 19.7062 96.6194 19.5926C96.8635 19.48 97.0863 19.3419 97.2886 19.1799C97.4579 19.0436 97.6127 18.8911 97.7524 18.7213L96.7133 17.735C96.5023 17.9757 96.2723 18.1609 96.0227 18.2912C95.7282 18.4448 95.4083 18.5215 95.0635 18.5215C94.8643 18.5215 94.6737 18.4979 94.4927 18.4511C94.3122 18.4043 94.141 18.3339 93.9818 18.2404C93.822 18.146 93.68 18.0324 93.5561 17.8998C93.4337 17.7686 93.3284 17.617 93.2403 17.4462C93.1537 17.2773 93.0888 17.0956 93.0452 16.9022C93.0022 16.7088 92.9808 16.5053 92.9808 16.2911C92.9808 16.0772 93.0022 15.8738 93.0452 15.6803C93.0888 15.4869 93.1537 15.3053 93.2403 15.1364C93.3284 14.9657 93.4337 14.8139 93.5561 14.6823C93.68 14.5497 93.822 14.4366 93.9818 14.3422C94.141 14.2486 94.3112 14.1779 94.4917 14.1315C94.6732 14.0843 94.8639 14.0612 95.0635 14.0612C95.4083 14.0612 95.7282 14.1379 96.0227 14.2913C96.2723 14.4212 96.5023 14.6069 96.7138 14.8476L97.7524 13.8614C97.6127 13.6915 97.4579 13.5385 97.2886 13.4027C97.0863 13.2402 96.8635 13.1026 96.6194 12.9895C96.1302 12.7629 95.5785 12.6494 94.9645 12.6494C94.6115 12.6494 94.278 12.6885 93.9636 12.7661C93.6496 12.8433 93.3538 12.9595 93.0761 13.1144C92.7984 13.2692 92.5506 13.4545 92.3324 13.6701C92.1141 13.8854 91.9259 14.1315 91.7675 14.4071C91.6091 14.6827 91.4903 14.9775 91.4109 15.2912C91.3314 15.605 91.2915 15.9387 91.2915 16.2911C91.2915 16.6439 91.3314 16.9772 91.4109 17.2914C91.4903 17.6052 91.6091 17.8998 91.7675 18.175C91.9259 18.4511 92.1141 18.6968 92.3324 18.9124C92.5506 19.1277 92.7984 19.3129 93.0761 19.4678C93.3538 19.6226 93.6496 19.7388 93.9636 19.8164ZM101.089 19.8151C101.406 19.8936 101.744 19.9328 102.1 19.9328C102.455 19.9328 102.793 19.8936 103.111 19.8151C103.428 19.737 103.727 19.6194 104.009 19.4627C104.29 19.3061 104.54 19.1194 104.76 18.9034C104.98 18.6872 105.171 18.4406 105.332 18.1641C105.492 17.8871 105.612 17.5934 105.693 17.2827C105.772 16.9722 105.812 16.6411 105.812 16.2911C105.812 15.9409 105.772 15.6105 105.693 15.2993C105.612 14.9893 105.492 14.695 105.332 14.4184C105.171 14.1419 104.98 13.8954 104.76 13.6793C104.54 13.4631 104.29 13.2765 104.009 13.1198C103.727 12.9632 103.427 12.8456 103.111 12.767C102.793 12.6889 102.455 12.6494 102.1 12.6494C101.744 12.6494 101.406 12.6889 101.089 12.767C100.772 12.8456 100.473 12.9632 100.192 13.1198C99.9109 13.2765 99.6598 13.4631 99.4395 13.6793C99.2189 13.8954 99.0283 14.1419 98.8682 14.4184C98.7075 14.695 98.5872 14.9893 98.5074 15.2993C98.4272 15.6105 98.3872 15.9409 98.3872 16.2911C98.3872 16.6411 98.4272 16.9722 98.5074 17.2827C98.5872 17.5934 98.7075 17.8871 98.8682 18.1641C99.0283 18.4406 99.2189 18.6872 99.4395 18.9034C99.6598 19.1194 99.9109 19.3061 100.192 19.4627C100.473 19.6194 100.772 19.737 101.089 19.8151ZM102.64 18.4506C102.466 18.4979 102.287 18.5215 102.1 18.5215C101.913 18.5215 101.733 18.4979 101.559 18.4506C101.388 18.4034 101.224 18.333 101.07 18.239C100.916 18.1451 100.778 18.032 100.656 17.8994C100.536 17.7681 100.431 17.6174 100.342 17.4476C100.253 17.2783 100.187 17.0961 100.142 16.9027C100.098 16.7097 100.077 16.5058 100.077 16.2911C100.077 16.0767 100.098 15.8729 100.142 15.6799C100.187 15.486 100.253 15.3044 100.342 15.135C100.431 14.9652 100.536 14.8144 100.656 14.6832C100.778 14.5506 100.916 14.4371 101.07 14.3431C101.224 14.2495 101.388 14.1792 101.559 14.1319C101.733 14.0848 101.913 14.0612 102.1 14.0612C102.287 14.0612 102.466 14.0848 102.64 14.1319C102.813 14.1792 102.976 14.2495 103.129 14.3431C103.283 14.4371 103.421 14.5506 103.543 14.6832C103.664 14.8144 103.768 14.9652 103.858 15.135C103.946 15.3044 104.014 15.486 104.057 15.6794C104.101 15.8729 104.124 16.0767 104.124 16.2911C104.124 16.5058 104.101 16.7097 104.057 16.9027C104.014 17.0961 103.946 17.2783 103.858 17.4476C103.768 17.6174 103.664 17.7681 103.543 17.8994C103.421 18.032 103.283 18.1451 103.129 18.239C102.976 18.333 102.813 18.4034 102.64 18.4506ZM112.532 16.5118C112.387 16.4124 112.219 16.3297 112.026 16.2643L111.7 16.1539L112.005 15.9941C112.146 15.9205 112.269 15.8343 112.377 15.7348C112.483 15.6368 112.573 15.5264 112.647 15.4033C112.72 15.2803 112.776 15.1473 112.813 15.0047C112.85 14.8621 112.868 14.7077 112.868 14.542C112.868 14.2627 112.816 14.0166 112.711 13.8046C112.607 13.5934 112.45 13.4127 112.241 13.2619C111.806 12.9509 111.188 12.7952 110.386 12.7952H107.16V19.787H110.575C111.003 19.787 111.381 19.7425 111.706 19.6535C112.027 19.5663 112.3 19.4355 112.524 19.2612C112.745 19.0905 112.911 18.8884 113.02 18.6554C113.131 18.4216 113.186 18.1541 113.186 17.8531C113.186 17.4544 113.089 17.1229 112.893 16.8582C112.795 16.7256 112.675 16.6098 112.532 16.5118ZM110.198 15.7103H108.799V13.9776H110.198C110.512 13.9776 110.752 14.0497 110.919 14.1937C111.093 14.3426 111.179 14.5593 111.179 14.8439C111.179 15.4215 110.852 15.7103 110.198 15.7103ZM111.234 18.3771C111.064 18.5287 110.817 18.6046 110.495 18.6046H108.799V16.8096H110.495C111.163 16.8096 111.497 17.1052 111.497 17.6969C111.497 17.9943 111.409 18.2209 111.234 18.3771ZM119.029 15.2598C118.715 15.1649 118.35 15.1168 117.939 15.1168H116.183V12.7952H114.543V19.787H117.681C118.126 19.787 118.521 19.7339 118.866 19.6276C119.204 19.5227 119.496 19.3656 119.738 19.1568C119.978 18.9505 120.158 18.6982 120.278 18.3993C120.399 18.0964 120.46 17.7441 120.46 17.3427C120.46 16.9685 120.406 16.6425 120.297 16.3646C120.19 16.0913 120.03 15.8628 119.816 15.6789C119.601 15.4932 119.339 15.3534 119.029 15.2598ZM118.046 18.5261C117.898 18.5783 117.733 18.6046 117.552 18.6046H116.183V16.2888H117.552C117.949 16.2888 118.251 16.3805 118.46 16.5631C118.674 16.7502 118.781 17.0244 118.781 17.3845C118.781 17.5715 118.753 17.7395 118.699 17.888C118.642 18.0411 118.557 18.1728 118.443 18.2822C118.33 18.3907 118.198 18.472 118.046 18.5261ZM123.16 12.7952H121.52V19.787H123.16V12.7952ZM126.594 12.7952H124.953V19.787H126.584L129.667 15.1808V19.787H131.308V12.7952H129.687L126.594 17.4117V12.7952ZM127.248 11.961C127.492 12.0282 127.783 12.0619 128.121 12.0619C128.462 12.0619 128.757 12.0282 129.002 11.961C129.241 11.8961 129.434 11.799 129.583 11.6708C129.85 11.4411 129.997 11.1042 130.023 10.661H128.991C128.982 10.7405 128.966 10.8132 128.942 10.879C128.903 10.9907 128.846 11.0842 128.77 11.1591C128.622 11.3058 128.405 11.3794 128.121 11.3794C127.982 11.3794 127.861 11.3621 127.757 11.3276C127.645 11.2903 127.551 11.2332 127.478 11.156C127.407 11.081 127.352 10.9876 127.315 10.8767C127.294 10.8118 127.279 10.7395 127.269 10.661H126.238C126.25 10.8631 126.286 11.0424 126.347 11.1991C126.419 11.388 126.528 11.5456 126.674 11.6717C126.821 11.7994 127.013 11.8961 127.248 11.961ZM52.9658 25.6196H54.9418V24.2809H49.0449V25.6196H51.1785V31.2727H52.8179V25.6196H52.9658ZM61.4223 31.2727V29.9759H57.79V28.3472H60.8763V27.1026H57.79V25.5778H61.293V24.2809H56.1406V31.2727H61.4223ZM67.4417 24.5943C66.9988 24.3854 66.4738 24.2809 65.8672 24.2809H62.8393V31.2727H64.5086V29.3674H65.8672C66.1716 29.3674 66.4557 29.3411 66.7189 29.2884C66.9807 29.2362 67.2215 29.1581 67.4417 29.0541C67.6613 28.9506 67.855 28.8253 68.0233 28.6791C68.1904 28.5338 68.3333 28.3666 68.4513 28.1778C68.5692 27.9889 68.6577 27.7827 68.7167 27.5593C68.7761 27.335 68.8056 27.0916 68.8056 26.8291C68.8056 26.5671 68.7761 26.3233 68.7167 26.0981C68.6572 25.8733 68.5688 25.6654 68.4513 25.4752C68.3333 25.2853 68.1904 25.1169 68.0229 24.9702C67.855 24.8235 67.6613 24.6982 67.4417 24.5943ZM66.3218 27.9639C66.1553 28.0143 65.9642 28.0392 65.7483 28.0392H64.5086V25.609H65.7483C65.9638 25.609 66.1553 25.6349 66.3223 25.6862C66.4956 25.7398 66.6417 25.8207 66.7606 25.9288C66.8799 26.0382 66.9693 26.1699 67.0292 26.3233C67.0873 26.4732 67.1167 26.6417 67.1167 26.8291C67.1167 27.0176 67.0873 27.186 67.0292 27.3346C66.9698 27.4871 66.8794 27.6174 66.7593 27.7255C66.6404 27.8322 66.4943 27.9117 66.3218 27.9639ZM71.3452 29.8569H74.3835L74.9294 31.2727H76.6505L73.6988 24.2809H71.9587L69.0166 31.2727H70.6987L71.244 29.8569H71.3452ZM72.9519 26.0999L73.922 28.6327H71.706L72.8141 25.7398L72.9519 26.0999ZM84.0393 31.2727V24.2809H77.8148V31.2727H79.4541V25.6196H82.3895V31.2727H84.0393ZM91.105 31.2727V29.9759H87.4728V28.3472H90.5592V27.1026H87.4728V25.5778H90.9762V24.2809H85.8234V31.2727H91.105ZM97.8939 27.9971C97.7492 27.8976 97.5804 27.8154 97.3881 27.75L97.0618 27.6397L97.3671 27.4799C97.5074 27.4064 97.6312 27.32 97.7388 27.2206C97.845 27.1225 97.9352 27.0118 98.0087 26.8891C98.0827 26.7656 98.1381 26.6325 98.1748 26.4904C98.212 26.3478 98.2307 26.1935 98.2307 26.0278C98.2307 25.7485 98.178 25.5024 98.0737 25.2904C97.9697 25.0792 97.8127 24.8984 97.6026 24.7477C97.1684 24.4367 96.5505 24.2809 95.7487 24.2809H92.522V31.2727H95.9369C96.3653 31.2727 96.7424 31.2283 97.0681 31.1392C97.389 31.0516 97.6617 30.9208 97.8863 30.7469C98.1072 30.5757 98.2728 30.3737 98.3826 30.1407C98.4929 29.9069 98.5482 29.6395 98.5482 29.3383C98.5482 28.9402 98.4503 28.6082 98.2552 28.3435C98.1571 28.2109 98.0369 28.0956 97.8939 27.9971ZM95.5599 27.1961H94.1614V25.4633H95.5599C95.8739 25.4633 96.1144 25.5355 96.2813 25.679C96.4547 25.828 96.5413 26.045 96.5413 26.3297C96.5413 26.9073 96.2142 27.1961 95.5599 27.1961ZM96.5958 29.8629C96.4256 30.0145 96.1793 30.0903 95.8575 30.0903H94.1614V28.2954H95.8575C96.525 28.2954 96.859 28.5909 96.859 29.1821C96.859 29.4796 96.7714 29.7066 96.5958 29.8629ZM103.132 25.6196H105.108V24.2809H99.2107V25.6196H101.345V31.2727H102.984V25.6196H103.132Z" fill="#013D62"/>
<path fill-rule="evenodd" clip-rule="evenodd" d="M14.2476 0H28.2988C28.7702 0 29.1564 0.385962 29.1564 0.858196V12.0542C29.18 12.487 29.4813 12.7762 29.8266 12.7889H41.516C42.0687 12.7889 42.5206 13.2412 42.5206 13.7943V30.2662C42.5206 30.8193 42.0687 31.2715 41.516 31.2715H29.8338C29.4486 31.2879 29.1732 31.5685 29.1564 32.0075V43.2027C29.1564 43.6745 28.7702 44.061 28.2988 44.061H14.2476C13.7757 44.061 13.39 43.6745 13.39 43.2027V32.0003C13.3115 31.5694 13.0843 31.2978 12.7135 31.2715H1.02999C0.477776 31.2715 0.0253906 30.8193 0.0253906 30.2662V13.7943C0.0253906 13.2412 0.477776 12.7889 1.02999 12.7889H12.7207C13.0892 12.7608 13.3601 12.4915 13.39 12.0615V0.858196C13.39 0.385962 13.7757 0 14.2476 0Z" fill="#FF4736"/>
<path d="M8.19384 15.1445C8.43297 15.1445 8.64942 15.2417 8.80642 15.3988L8.80687 15.3997C8.96388 15.5563 9.06098 15.7733 9.06098 16.0122C9.06098 16.2511 8.96388 16.4677 8.80687 16.6248L8.80642 16.6257C8.64942 16.7824 8.43297 16.8796 8.19384 16.8796C7.95516 16.8796 7.73871 16.7824 7.58171 16.6257L7.58125 16.6248C7.42425 16.4677 7.32715 16.2511 7.32715 16.0122C7.32715 15.7733 7.42425 15.5563 7.58125 15.3997L7.58171 15.3988C7.73871 15.2417 7.95516 15.1445 8.19384 15.1445ZM8.54006 15.6658C8.45158 15.5776 8.32906 15.5231 8.19384 15.5231C8.05862 15.5231 7.93655 15.5776 7.84807 15.6658C7.76004 15.7543 7.70514 15.877 7.70514 16.0122C7.70514 16.1475 7.76004 16.2702 7.84807 16.3582C7.93655 16.4468 8.05862 16.5013 8.19384 16.5013C8.32906 16.5013 8.45158 16.4468 8.54006 16.3582C8.62809 16.2702 8.683 16.1475 8.683 16.0122C8.683 15.877 8.62809 15.7543 8.54006 15.6658Z" fill="#C41E0F"/>
<path d="M7.51692 16.2016H0.0341797V15.8229H7.51692V16.2016Z" fill="#C41E0F"/>
<path d="M5.58836 18.4572C5.82705 18.4572 6.04349 18.5543 6.2005 18.711L6.2014 18.7119C6.3584 18.869 6.4555 19.0856 6.4555 19.3244C6.4555 19.5638 6.3584 19.7804 6.2014 19.9375L6.2005 19.938C6.04349 20.0951 5.82705 20.1922 5.58836 20.1922C5.34968 20.1922 5.13324 20.0951 4.97624 19.938L4.97533 19.9375C4.81878 19.7804 4.72168 19.5638 4.72168 19.3244C4.72168 19.0856 4.81878 18.869 4.97533 18.7119L4.97624 18.711C5.13324 18.5543 5.34968 18.4572 5.58836 18.4572ZM5.93459 18.9784C5.8461 18.8899 5.72359 18.8354 5.58836 18.8354C5.45315 18.8354 5.33063 18.8899 5.24259 18.9784C5.15411 19.067 5.09967 19.1891 5.09967 19.3244C5.09967 19.4598 5.15411 19.5824 5.24259 19.6709C5.33063 19.759 5.45315 19.8135 5.58836 19.8135C5.72359 19.8135 5.8461 19.759 5.93459 19.6709C6.02261 19.5824 6.07707 19.4598 6.07707 19.3244C6.07707 19.1891 6.02261 19.067 5.93459 18.9784Z" fill="#C41E0F"/>
<path d="M4.96191 19.5139H0V19.1355H4.96191V19.5139Z" fill="#C41E0F"/>
<path d="M0.0253906 22.4749H7.69734V20.4853L16.456 11.6031V3.8226H16.834V11.757L8.07577 20.6392V22.8533H0.0253906V22.4749Z" fill="#C41E0F"/>
<path d="M16.7377 2.30666C16.9764 2.30666 17.1933 2.40383 17.3503 2.5605L17.3508 2.5614C17.5078 2.71852 17.6049 2.93512 17.6049 3.17397C17.6049 3.41328 17.5078 3.62987 17.3508 3.78698C17.1938 3.9441 16.9764 4.04173 16.7377 4.04173C16.499 4.04173 16.2826 3.94456 16.1257 3.78744L16.1247 3.78698C15.9682 3.62987 15.8711 3.41328 15.8711 3.17397C15.8711 2.93512 15.9682 2.71852 16.1247 2.5614L16.1257 2.5605C16.2826 2.40383 16.499 2.30666 16.7377 2.30666ZM17.084 2.82795C16.9955 2.7394 16.873 2.68491 16.7377 2.68491C16.6026 2.68491 16.4805 2.7394 16.3919 2.82795C16.3035 2.9165 16.249 3.03865 16.249 3.17397C16.249 3.30928 16.3035 3.43189 16.3919 3.52043C16.4805 3.60854 16.6026 3.66302 16.7377 3.66302C16.873 3.66302 16.9955 3.60854 17.084 3.52043C17.172 3.43189 17.2264 3.30928 17.2264 3.17397C17.2264 3.03865 17.172 2.9165 17.084 2.82795Z" fill="#C41E0F"/>
<path d="M0.0439453 25.883H3.40893L6.35148 28.8186H7.86926V29.1968H6.19676L3.25465 26.2613H0.0439453V25.883Z" fill="#C41E0F"/>
<path d="M8.59077 28.1916C8.82946 28.1916 9.04591 28.2888 9.20291 28.4459C9.35946 28.6031 9.45747 28.8201 9.45747 29.0594C9.45747 29.2982 9.36036 29.5148 9.20381 29.672L9.20291 29.6725C9.04591 29.8296 8.82946 29.9267 8.59077 29.9267C8.35209 29.9267 8.13565 29.8296 7.97865 29.6725L7.97774 29.672C7.82074 29.5148 7.72363 29.2982 7.72363 29.0594C7.72363 28.8201 7.82074 28.6035 7.97774 28.4463L7.97865 28.4459C8.13565 28.2888 8.35209 28.1916 8.59077 28.1916ZM8.93654 28.7129C8.84851 28.6248 8.726 28.5699 8.59077 28.5699C8.45556 28.5699 8.33304 28.6248 8.24456 28.7129C8.15652 28.8015 8.10208 28.9236 8.10208 29.0594C8.10208 29.1947 8.15652 29.3168 8.24456 29.4054C8.33304 29.4935 8.45556 29.5484 8.59077 29.5484C8.726 29.5484 8.84851 29.4935 8.93654 29.4054C9.02502 29.3168 9.07948 29.1947 9.07948 29.0594C9.07948 28.9236 9.02502 28.8015 8.93654 28.7129Z" fill="#C41E0F"/>
<path d="M3.60905 22.4929L7.07522 25.9792H9.73236L10.888 27.1048L10.6248 27.375L9.58036 26.3574H6.92004L3.3418 22.7589L3.60905 22.4929Z" fill="#C41E0F"/>
<path d="M11.2388 26.9007C11.4775 26.9007 11.6944 26.9979 11.851 27.155L11.8519 27.1559C12.0089 27.313 12.1059 27.5295 12.1059 27.7684C12.1059 28.0073 12.0089 28.2239 11.8519 28.381L11.851 28.3819C11.6944 28.5386 11.4775 28.6358 11.2388 28.6358C11.0001 28.6358 10.7837 28.5386 10.6266 28.3819L10.6257 28.381C10.4692 28.2239 10.3721 28.0073 10.3721 27.7684C10.3721 27.5295 10.4692 27.313 10.6257 27.1559L10.6266 27.155C10.7837 26.9979 11.0001 26.9007 11.2388 26.9007ZM11.585 27.422C11.4966 27.3339 11.3741 27.2793 11.2388 27.2793C11.1036 27.2793 10.9811 27.3339 10.893 27.422C10.8046 27.5105 10.7501 27.6332 10.7501 27.7684C10.7501 27.9038 10.8046 28.0264 10.893 28.1144C10.9811 28.203 11.1036 28.2575 11.2388 28.2575C11.3741 28.2575 11.4966 28.203 11.585 28.1144C11.673 28.0264 11.7275 27.9038 11.7275 27.7684C11.7275 27.6332 11.673 27.5105 11.585 27.422Z" fill="#C41E0F"/>
<path d="M9.93703 22.0237C10.1757 22.0237 10.3926 22.1209 10.5491 22.2776L10.55 22.2785C10.707 22.4356 10.8042 22.6522 10.8042 22.8911C10.8042 23.1299 10.707 23.3465 10.55 23.5036L10.5491 23.5045C10.3926 23.6616 10.1757 23.7588 9.93703 23.7588C9.69832 23.7588 9.48187 23.6616 9.32487 23.5045L9.32396 23.5036C9.16742 23.3465 9.07031 23.1299 9.07031 22.8911C9.07031 22.6522 9.16742 22.4356 9.32396 22.2785L9.32487 22.2776C9.48187 22.1209 9.69832 22.0237 9.93703 22.0237ZM10.2832 22.545C10.1948 22.4565 10.0722 22.402 9.93703 22.402C9.80177 22.402 9.67926 22.4565 9.59123 22.545C9.50275 22.6331 9.44829 22.7557 9.44829 22.8911C9.44829 23.0263 9.50275 23.149 9.59123 23.2375C9.67926 23.3256 9.80177 23.3801 9.93703 23.3801C10.0722 23.3801 10.1948 23.3256 10.2832 23.2375C10.3712 23.149 10.4257 23.0263 10.4257 22.8911C10.4257 22.7557 10.3712 22.6331 10.2832 22.545Z" fill="#C41E0F"/>
<path d="M9.77148 22.2124V20.7162L18.2534 12.1147L18.2497 6.15999L19.5003 4.9953V2.76217H19.8782V5.15877L18.6268 6.32483L18.63 12.27L10.1495 20.8701V22.2124H9.77148Z" fill="#C41E0F"/>
<path d="M19.7535 1.17659C19.9921 1.17659 20.209 1.27377 20.3655 1.43043L20.3665 1.43133C20.5234 1.58845 20.6206 1.80505 20.6206 2.0439C20.6206 2.28275 20.5234 2.49935 20.3665 2.65646L20.3655 2.65737C20.209 2.81404 19.9921 2.91167 19.7535 2.91167C19.5148 2.91167 19.2983 2.81404 19.1413 2.65737L19.1404 2.65646C18.9839 2.49935 18.8867 2.28275 18.8867 2.0439C18.8867 1.80505 18.9839 1.58845 19.1404 1.43133L19.1413 1.43043C19.2983 1.27377 19.5148 1.17659 19.7535 1.17659ZM20.0996 1.69743C20.0112 1.60933 19.8886 1.55485 19.7535 1.55485C19.6182 1.55485 19.4957 1.60933 19.4077 1.69743C19.3191 1.78598 19.2648 1.90858 19.2648 2.0439C19.2648 2.17922 19.3191 2.30182 19.4077 2.39037C19.4957 2.47846 19.6182 2.53296 19.7535 2.53296C19.8886 2.53296 20.0112 2.47846 20.0996 2.39037C20.1877 2.30182 20.2422 2.17922 20.2422 2.0439C20.2422 1.90858 20.1877 1.78598 20.0996 1.69743Z" fill="#C41E0F"/>
<path d="M24.1929 3.41981L21.0203 6.62284L21.0235 13.1756L13.8053 20.5124L13.8098 31.5586L13.5525 32.0109L13.2998 31.6926L13.4332 31.4583L13.4286 20.3576L20.6469 13.0207L20.6432 6.46754L23.9256 3.15372L24.1929 3.41981Z" fill="#C41E0F"/>
<path d="M24.5888 1.90154C24.8275 1.90154 25.044 1.99872 25.201 2.15537L25.2019 2.15628C25.3584 2.31339 25.4554 2.53 25.4554 2.76885C25.4554 3.0077 25.3584 3.22476 25.2019 3.38141L25.201 3.38233C25.044 3.53944 24.8275 3.63661 24.5888 3.63661C24.3501 3.63661 24.1333 3.53944 23.9766 3.38233L23.9758 3.38141C23.8187 3.22476 23.7217 3.0077 23.7217 2.76885C23.7217 2.53 23.8187 2.31339 23.9758 2.15628L23.9766 2.15537C24.1333 1.99872 24.3501 1.90154 24.5888 1.90154ZM24.9346 2.42283C24.8466 2.33429 24.724 2.2798 24.5888 2.2798C24.4535 2.2798 24.3311 2.33429 24.2425 2.42283C24.1545 2.51093 24.1001 2.63353 24.1001 2.76885C24.1001 2.90417 24.1545 3.02677 24.2425 3.11532C24.3311 3.20341 24.4535 3.25791 24.5888 3.25791C24.724 3.25791 24.8466 3.20341 24.9346 3.11532C25.023 3.02677 25.0775 2.90417 25.0775 2.76885C25.0775 2.63353 25.023 2.51093 24.9346 2.42283Z" fill="#C41E0F"/>
<path d="M25.9523 6.30864L23.7657 8.42961L23.7693 13.3299L19.1034 18.1141L18.833 17.8507L23.3927 13.176L23.389 8.26933L25.6895 6.03801L25.9523 6.30864Z" fill="#C41E0F"/>
<path d="M26.3857 4.80134C26.6244 4.80134 26.8408 4.89851 26.9978 5.05563L26.9987 5.05653C27.1553 5.21365 27.2524 5.43025 27.2524 5.6691C27.2524 5.90795 27.1553 6.12455 26.9987 6.28167L26.9978 6.28258C26.8408 6.43924 26.6244 6.53641 26.3857 6.53641C26.147 6.53641 25.9305 6.43924 25.7735 6.28258L25.7726 6.28167C25.6156 6.12455 25.5186 5.90795 25.5186 5.6691C25.5186 5.43025 25.6156 5.21365 25.7726 5.05653L25.7735 5.05563C25.9305 4.89851 26.147 4.80134 26.3857 4.80134ZM26.732 5.32263C26.6434 5.23454 26.521 5.18005 26.3857 5.18005C26.2505 5.18005 26.1279 5.23454 26.0395 5.32263C25.9515 5.41118 25.897 5.53379 25.897 5.6691C25.897 5.80442 25.9515 5.92703 26.0395 6.01557C26.1279 6.10366 26.2505 6.15816 26.3857 6.15816C26.521 6.15816 26.6434 6.10366 26.732 6.01557C26.82 5.92703 26.8744 5.80442 26.8744 5.6691C26.8744 5.53379 26.82 5.41118 26.732 5.32263Z" fill="#C41E0F"/>
<path d="M18.3955 17.612C18.6341 17.612 18.8506 17.7092 19.0076 17.8659L19.0085 17.8668C19.165 18.0239 19.2622 18.2405 19.2622 18.4793C19.2622 18.7186 19.165 18.9352 19.0085 19.0923L19.0076 19.0928C18.8506 19.2499 18.6341 19.3471 18.3955 19.3471C18.1568 19.3471 17.9399 19.2499 17.7834 19.0928L17.7825 19.0923C17.6255 18.9352 17.5283 18.7186 17.5283 18.4793C17.5283 18.2405 17.6255 18.0239 17.7825 17.8668L17.7834 17.8659C17.9399 17.7092 18.1568 17.612 18.3955 17.612ZM18.7412 18.1333C18.6532 18.0452 18.5307 17.9903 18.3955 17.9903C18.2603 17.9903 18.1377 18.0452 18.0493 18.1333C17.9612 18.2219 17.9068 18.344 17.9068 18.4793C17.9068 18.6146 17.9612 18.7373 18.0493 18.8258C18.1377 18.9139 18.2603 18.9683 18.3955 18.9683C18.5307 18.9683 18.6532 18.9139 18.7412 18.8258C18.8298 18.7373 18.8841 18.6146 18.8841 18.4793C18.8841 18.344 18.8298 18.2219 18.7412 18.1333Z" fill="#C41E0F"/>
<path d="M26.441 10.4633L26.4442 15.1825L17.1338 24.614L16.8652 24.3497L26.0677 15.0277L26.0644 10.4633H26.441Z" fill="#C41E0F"/>
<path d="M26.2911 8.98628C26.5297 8.98628 26.7461 9.08345 26.9031 9.24056C27.0601 9.39768 27.1577 9.61474 27.1577 9.85404C27.1577 10.0929 27.0606 10.3095 26.9036 10.4666C26.7466 10.6237 26.5297 10.7213 26.2911 10.7213C26.0519 10.7213 25.8354 10.6242 25.6784 10.4671C25.5214 10.31 25.4238 10.0929 25.4238 9.85404C25.4238 9.61474 25.521 9.39814 25.678 9.24102C25.835 9.08391 26.0519 8.98628 26.2911 8.98628ZM26.6367 9.50757C26.5483 9.41948 26.4262 9.36453 26.2911 9.36453C26.1554 9.36453 26.0333 9.41948 25.9448 9.50757C25.8567 9.59612 25.8019 9.71826 25.8019 9.85404C25.8019 9.98939 25.8567 10.1115 25.9448 10.2001C26.0333 10.2881 26.1554 10.3431 26.2911 10.3431C26.4262 10.3431 26.5483 10.2881 26.6367 10.2001C26.7248 10.1115 26.7798 9.98939 26.7798 9.85404C26.7798 9.71826 26.7248 9.59612 26.6367 9.50757Z" fill="#C41E0F"/>
<path d="M16.5258 24.1637C16.7645 24.1637 16.9814 24.2609 17.138 24.418C17.295 24.5751 17.3929 24.7922 17.3929 25.0315C17.3929 25.2704 17.2959 25.4869 17.1389 25.644L17.138 25.6449C16.9814 25.8016 16.7645 25.8988 16.5258 25.8988C16.2871 25.8988 16.0707 25.8016 15.9138 25.6449L15.9128 25.644C15.7562 25.4869 15.6592 25.2704 15.6592 25.0315C15.6592 24.7922 15.7562 24.5755 15.9128 24.4184L15.9138 24.418C16.0707 24.2609 16.2871 24.1637 16.5258 24.1637ZM16.8721 24.685C16.7836 24.5969 16.6611 24.5424 16.5258 24.5424C16.3906 24.5424 16.2681 24.5969 16.18 24.685C16.0916 24.7735 16.0371 24.8962 16.0371 25.0315C16.0371 25.1667 16.0916 25.2889 16.18 25.3774C16.2681 25.4656 16.3906 25.5206 16.5258 25.5206C16.6611 25.5206 16.7836 25.4656 16.8721 25.3774C16.9601 25.2889 17.0145 25.1667 17.0145 25.0315C17.0145 24.8962 16.9601 24.7735 16.8721 24.685Z" fill="#C41E0F"/>
<path d="M16.5258 32.9309C16.7645 32.9309 16.9814 33.0282 17.138 33.1848L17.1389 33.1857C17.2959 33.3428 17.3929 33.5594 17.3929 33.7982C17.3929 34.0375 17.2959 34.2542 17.1389 34.4113C16.9823 34.5684 16.7645 34.6661 16.5258 34.6661C16.2871 34.6661 16.0707 34.5688 15.9138 34.4117L15.9128 34.4113C15.7562 34.2542 15.6592 34.0375 15.6592 33.7982C15.6592 33.5594 15.7562 33.3428 15.9128 33.1857L15.9138 33.1848C16.0707 33.0282 16.2871 32.9309 16.5258 32.9309ZM16.8721 33.4522C16.7836 33.3641 16.6611 33.3092 16.5258 33.3092C16.3906 33.3092 16.2681 33.3641 16.18 33.4522C16.0916 33.5408 16.0371 33.6629 16.0371 33.7982C16.0371 33.9336 16.0916 34.0562 16.18 34.1447C16.2681 34.2328 16.3906 34.2873 16.5258 34.2873C16.6611 34.2873 16.7836 34.2328 16.8721 34.1447C16.9601 34.0562 17.0145 33.9336 17.0145 33.7982C17.0145 33.6629 16.9601 33.5408 16.8721 33.4522Z" fill="#C41E0F"/>
<path d="M16.3369 33.1203V25.7086H16.7153V33.1203H16.3369Z" fill="#C41E0F"/>
<path d="M16.5258 37.5734C16.7645 37.5734 16.9814 37.6705 17.138 37.8276C17.295 37.9848 17.3929 38.2018 17.3929 38.4411C17.3929 38.68 17.2959 38.8965 17.1389 39.0536L17.138 39.0545C16.9814 39.2112 16.7645 39.3084 16.5258 39.3084C16.2871 39.3084 16.0707 39.2112 15.9138 39.0545L15.9128 39.0536C15.7562 38.8965 15.6592 38.68 15.6592 38.4411C15.6592 38.2018 15.7562 37.9852 15.9128 37.828L15.9138 37.8276C16.0707 37.6705 16.2871 37.5734 16.5258 37.5734ZM16.8721 38.0946C16.7836 38.0066 16.6611 37.9521 16.5258 37.9521C16.3906 37.9521 16.2681 38.0066 16.18 38.0946C16.0916 38.1831 16.0371 38.3058 16.0371 38.4411C16.0371 38.5765 16.0916 38.6985 16.18 38.7872C16.2681 38.8752 16.3906 38.9302 16.5258 38.9302C16.6611 38.9302 16.7836 38.8752 16.8721 38.7872C16.9601 38.6985 17.0145 38.5765 17.0145 38.4411C17.0145 38.3058 16.9601 38.1831 16.8721 38.0946Z" fill="#C41E0F"/>
<path d="M28.7106 16.2717L20.2773 24.8142V34.9927L17.1782 38.1358L16.9092 37.8716L19.8993 34.8393V24.6608L28.442 16.007L28.7106 16.2717Z" fill="#C41E0F"/>
<path d="M29.1015 14.8557C29.3402 14.8557 29.5566 14.9529 29.7136 15.11C29.8702 15.2671 29.9681 15.4841 29.9681 15.7229C29.9681 15.9622 29.8711 16.1789 29.7145 16.336L29.7136 16.3365C29.5566 16.4936 29.3402 16.5908 29.1015 16.5908C28.8628 16.5908 28.6459 16.4936 28.4893 16.3365L28.4885 16.336C28.3314 16.1789 28.2344 15.9622 28.2344 15.7229C28.2344 15.4841 28.3314 15.2675 28.4885 15.1104C28.645 14.9533 28.8628 14.8557 29.1015 14.8557ZM29.4473 15.377C29.3593 15.2888 29.2367 15.2339 29.1015 15.2339C28.9662 15.2339 28.8438 15.2888 28.7552 15.377C28.6672 15.4655 28.6128 15.5877 28.6128 15.7229C28.6128 15.8583 28.6672 15.9809 28.7552 16.0694C28.8438 16.1575 28.9662 16.212 29.1015 16.212C29.2367 16.212 29.3593 16.1575 29.4473 16.0694C29.5357 15.9809 29.5902 15.8583 29.5902 15.7229C29.5902 15.5877 29.5357 15.4655 29.4473 15.377Z" fill="#C41E0F"/>
<path d="M31.3379 20.0376L22.3819 29.1081V31.8661H22.0039V28.9547L31.0693 19.7733L31.3379 20.0376Z" fill="#C41E0F"/>
<path d="M22.1982 31.6846C22.4369 31.6846 22.6533 31.7817 22.8103 31.9384L22.8112 31.9394C22.9679 32.0965 23.0649 32.313 23.0649 32.5519C23.0649 32.7907 22.9679 33.0074 22.8112 33.1645L22.8103 33.1654C22.6533 33.3225 22.4369 33.4196 22.1982 33.4196C21.9591 33.4196 21.7426 33.3225 21.5856 33.1654C21.4286 33.0083 21.3311 32.7907 21.3311 32.5519C21.3311 32.313 21.4282 32.0965 21.5852 31.9394L21.5856 31.9384C21.7426 31.7817 21.9591 31.6846 22.1982 31.6846ZM22.544 32.2058C22.4555 32.1173 22.3335 32.0628 22.1982 32.0628C22.063 32.0628 21.9405 32.1173 21.852 32.2058C21.764 32.294 21.7095 32.4165 21.7095 32.5519C21.7095 32.6872 21.764 32.8098 21.852 32.8984C21.9405 32.9864 22.063 33.0409 22.1982 33.0409C22.3335 33.0409 22.4555 32.9864 22.544 32.8984C22.6325 32.8098 22.6869 32.6872 22.6869 32.5519C22.6869 32.4165 22.6325 32.294 22.544 32.2058Z" fill="#C41E0F"/>
<path d="M31.7734 18.494C32.0121 18.494 32.2284 18.5912 32.3854 18.7478L32.3859 18.7487C32.543 18.9058 32.64 19.1224 32.64 19.3612C32.64 19.6006 32.543 19.8172 32.3859 19.9743C32.2289 20.1314 32.0121 20.2291 31.7734 20.2291C31.5342 20.2291 31.3177 20.1319 31.1607 19.9748C31.0037 19.8177 30.9062 19.6006 30.9062 19.3612C30.9062 19.1224 31.0033 18.9058 31.1603 18.7487C31.3173 18.5921 31.5342 18.494 31.7734 18.494ZM32.1192 19.0153C32.0306 18.9267 31.9086 18.8722 31.7734 18.8722C31.6377 18.8722 31.5156 18.9267 31.4271 19.0153C31.3391 19.1038 31.2842 19.226 31.2842 19.3612C31.2842 19.4966 31.3391 19.6192 31.4271 19.7077C31.5156 19.7958 31.6377 19.8503 31.7734 19.8503C31.9086 19.8503 32.0306 19.7958 32.1192 19.7077C32.2072 19.6192 32.2621 19.4966 32.2621 19.3612C32.2621 19.226 32.2072 19.1038 32.1192 19.0153Z" fill="#C41E0F"/>
<path d="M20.0225 44.0604V38.8253L24.3431 34.3932V31.2769L29.1651 26.4509L29.4323 26.7189L24.721 31.4335V34.5457L20.4005 38.978V44.0604H20.0225Z" fill="#C41E0F"/>
<path d="M29.8168 25.1969C30.0555 25.1969 30.2725 25.294 30.429 25.4511C30.586 25.6084 30.684 25.8253 30.684 26.0646C30.684 26.3035 30.5869 26.52 30.4299 26.6772L30.429 26.6777C30.2725 26.8348 30.0555 26.9319 29.8168 26.9319C29.5781 26.9319 29.3618 26.8348 29.2048 26.6777L29.2039 26.6772C29.0473 26.52 28.9502 26.3035 28.9502 26.0646C28.9502 25.8253 29.0473 25.6088 29.2039 25.4515C29.3609 25.2944 29.5781 25.1969 29.8168 25.1969ZM30.1631 25.7181C30.0746 25.6301 29.9521 25.5751 29.8168 25.5751C29.6817 25.5751 29.5591 25.6301 29.4711 25.7181C29.3826 25.8067 29.3281 25.9288 29.3281 26.0646C29.3281 26.2 29.3826 26.322 29.4711 26.4106C29.5591 26.4987 29.6817 26.5537 29.8168 26.5537C29.9521 26.5537 30.0746 26.4987 30.1631 26.4106C30.2511 26.322 30.3055 26.2 30.3055 26.0646C30.3055 25.9288 30.2511 25.8067 30.1631 25.7181Z" fill="#C41E0F"/>
<path d="M24.9385 40.3893V37.757L26.5116 36.1828V31.3928L35.228 22.5365V16.6409H35.6061V22.6901L26.8895 31.5462V36.3394L25.3164 37.9138V40.3893H24.9385Z" fill="#C41E0F"/>
<path d="M35.4004 15.0592C35.639 15.0592 35.8555 15.1563 36.0125 15.3134L36.0134 15.3139C36.17 15.471 36.2671 15.6876 36.2671 15.927C36.2671 16.1658 36.17 16.3824 36.0134 16.5395L36.0125 16.5404C35.8555 16.697 35.639 16.7942 35.4004 16.7942C35.1612 16.7942 34.9448 16.697 34.7878 16.5404C34.6308 16.3833 34.5332 16.1658 34.5332 15.927C34.5332 15.6876 34.6304 15.471 34.7874 15.3139C34.9444 15.1568 35.1612 15.0592 35.4004 15.0592ZM35.7461 15.5805C35.6577 15.4924 35.5356 15.4379 35.4004 15.4379C35.2652 15.4379 35.1427 15.4924 35.0542 15.5805C34.9661 15.669 34.9116 15.7916 34.9116 15.927C34.9116 16.0623 34.9661 16.1844 35.0542 16.273C35.1427 16.3611 35.2652 16.416 35.4004 16.416C35.5356 16.416 35.6577 16.3611 35.7461 16.273C35.8341 16.1844 35.8891 16.0623 35.8891 15.927C35.8891 15.7916 35.8341 15.669 35.7461 15.5805Z" fill="#C41E0F"/>
<path d="M25.1196 40.2638C25.3583 40.2638 25.5752 40.3609 25.7317 40.518L25.7326 40.5189C25.8896 40.676 25.9867 40.8927 25.9867 41.1316C25.9867 41.3704 25.8896 41.587 25.7326 41.7442L25.7317 41.745C25.5752 41.9017 25.3583 41.9988 25.1196 41.9988C24.8809 41.9988 24.6644 41.9017 24.5075 41.745L24.5065 41.7442C24.35 41.587 24.2529 41.3704 24.2529 41.1316C24.2529 40.8927 24.35 40.676 24.5065 40.5189L24.5075 40.518C24.6644 40.3609 24.8809 40.2638 25.1196 40.2638ZM25.4658 40.7851C25.3773 40.697 25.2548 40.6425 25.1196 40.6425C24.9844 40.6425 24.8623 40.697 24.7738 40.7851C24.6854 40.8736 24.6309 40.9962 24.6309 41.1316C24.6309 41.2669 24.6854 41.3894 24.7738 41.4776C24.8623 41.5661 24.9844 41.6206 25.1196 41.6206C25.2548 41.6206 25.3773 41.5661 25.4658 41.4776C25.5539 41.3894 25.6083 41.2669 25.6083 41.1316C25.6083 40.9962 25.5539 40.8736 25.4658 40.7851Z" fill="#C41E0F"/>
<path d="M35.7548 26.5343C35.9935 26.5343 36.21 26.6315 36.367 26.7886L36.3674 26.7896C36.5244 26.9467 36.6216 27.1632 36.6216 27.4021C36.6216 27.6409 36.5244 27.8576 36.3674 28.0147C36.2104 28.1713 35.9935 28.2693 35.7548 28.2693C35.5157 28.2693 35.2993 28.1722 35.1423 28.0156L35.1418 28.0147C34.9848 27.8576 34.8877 27.6409 34.8877 27.4021C34.8877 27.1632 34.9848 26.9467 35.1418 26.7896L35.1423 26.7886C35.2993 26.6315 35.5157 26.5343 35.7548 26.5343ZM36.1006 27.0556C36.0121 26.9675 35.89 26.913 35.7548 26.913C35.6192 26.913 35.4971 26.9675 35.4086 27.0556C35.3206 27.1442 35.2656 27.2667 35.2656 27.4021C35.2656 27.5374 35.3206 27.66 35.4086 27.7486C35.4971 27.8366 35.6192 27.8911 35.7548 27.8911C35.89 27.8911 36.0121 27.8366 36.1006 27.7486C36.1886 27.66 36.2435 27.5374 36.2435 27.4021C36.2435 27.2667 36.1886 27.1442 36.1006 27.0556Z" fill="#C41E0F"/>
<path d="M35.4506 27.9893L32.2711 31.2715H31.7461L35.1802 27.7264L35.4506 27.9893Z" fill="#C41E0F"/>
<path fill-rule="evenodd" clip-rule="evenodd" d="M13.2998 31.6927C13.5321 31.6578 13.6192 31.7704 13.5525 32.0111C13.5053 32.0764 13.4514 32.1659 13.3901 32.2804C13.3992 32.0496 13.3824 31.8567 13.2998 31.6927Z" fill="#C41E0F"/>
<path fill-rule="evenodd" clip-rule="evenodd" d="M15.7314 26.3476H17.2356L17.7706 29.1197C17.7851 29.2446 17.8613 29.3699 17.9997 29.4998C18.1336 29.6301 18.2479 29.725 18.3437 29.7899C18.5774 29.9602 18.8401 30.12 19.1173 30.2703C19.3986 30.4202 19.6899 30.5555 19.9907 30.6708C20.2916 30.7907 20.6069 30.8806 20.9319 30.956C21.0289 30.9764 21.1265 30.9941 21.224 31.0086V23.5047C20.9749 23.4147 20.729 23.3239 20.4827 23.2358C20.1341 23.1106 19.7952 22.9806 19.4608 22.8354C18.4344 22.3899 17.6272 21.7647 17.0445 20.9542C16.4574 20.1486 16.1661 19.1678 16.1661 18.0222C16.1661 17.2566 16.3235 16.546 16.6435 15.8858C16.9588 15.2301 17.3981 14.6598 17.952 14.1794C18.5107 13.6994 19.1649 13.3239 19.9145 13.0587C20.3324 12.9111 20.7694 12.8035 21.224 12.7377V10.7579H23.3231V12.6896C23.5005 12.7014 23.6761 12.7159 23.8494 12.7337C24.3363 12.7785 24.8041 12.8485 25.2578 12.9338C25.7066 13.0188 26.1413 13.1137 26.5615 13.2191C26.9816 13.3239 27.3877 13.4293 27.7793 13.5241V18.4223H26.2893L25.7783 15.8159C25.7592 15.6905 25.6875 15.5657 25.5542 15.4453C25.4248 15.3254 25.3055 15.2301 25.2052 15.1602C25.0528 15.0453 24.8808 14.935 24.6848 14.8351C24.4892 14.7351 24.2696 14.6448 24.0354 14.5649C23.8117 14.49 23.5758 14.4283 23.3231 14.3833V21.2661C23.6303 21.3814 23.9456 21.5013 24.2646 21.6293C24.6131 21.7697 24.981 21.9199 25.3726 22.0897C25.7973 22.275 26.2129 22.5053 26.6187 22.7704C27.0248 23.0356 27.3923 23.3657 27.7217 23.7508C28.0466 24.1362 28.3093 24.5917 28.5049 25.1121C28.7009 25.632 28.7962 26.2427 28.7962 26.9478C28.7962 27.6735 28.6628 28.3841 28.395 29.0744C28.1278 29.765 27.7077 30.3752 27.1345 30.9056C26.5615 31.4409 25.8214 31.8714 24.9189 32.1965C24.438 32.37 23.9052 32.4962 23.3231 32.5766V34.4696H21.224V32.6701C20.9232 32.6542 20.6129 32.6233 20.2966 32.577C19.8192 32.5017 19.3274 32.4117 18.826 32.2968C18.3246 32.1765 17.8232 32.0466 17.3169 31.9013C16.8109 31.7515 16.3095 31.6062 15.8082 31.4659L15.7314 26.3476ZM23.3231 30.9233C23.4555 30.8952 23.5849 30.8624 23.7106 30.8256C24.241 30.6708 24.6897 30.4456 25.0528 30.1505C25.4153 29.8599 25.6971 29.4998 25.8931 29.0848C26.0887 28.6643 26.1844 28.1939 26.1844 27.6685C26.1844 26.8829 25.9598 26.2327 25.5111 25.7123C25.0623 25.192 24.4606 24.7665 23.7011 24.4365C23.5753 24.381 23.4488 24.327 23.3231 24.2752V30.9233ZM21.224 14.4191C21.0797 14.4482 20.9405 14.4836 20.8075 14.5249C20.3347 14.6648 19.9336 14.8601 19.6091 15.1052C19.2843 15.3554 19.0361 15.6456 18.8641 15.9757C18.6921 16.3108 18.6109 16.6713 18.6109 17.0614C18.6109 17.4069 18.649 17.747 18.7302 18.0721C18.8115 18.4022 18.9498 18.7123 19.1504 19.008C19.351 19.3031 19.6187 19.5733 19.9526 19.8284C20.2853 20.0823 20.7122 20.3062 21.224 20.5005V14.4191Z" fill="#C41E0F"/>
<path fill-rule="evenodd" clip-rule="evenodd" d="M14.8027 25.7452H16.307L16.8419 28.5169C16.856 28.6417 16.9327 28.7671 17.0711 28.8969C17.2049 29.0273 17.3193 29.1222 17.415 29.1876C17.6487 29.3574 17.9114 29.5177 18.1882 29.6675C18.4699 29.8178 18.7613 29.9527 19.0621 30.068C19.3629 30.1879 19.6783 30.2782 20.0027 30.3531C20.0998 30.3736 20.1974 30.3913 20.2954 30.4058V22.9018C20.0458 22.8119 19.7999 22.7211 19.554 22.633C19.2055 22.5076 18.8665 22.3778 18.5321 22.2325C17.5058 21.7875 16.6985 21.1618 16.1159 20.3513C15.5288 19.5458 15.2374 18.5655 15.2374 17.4194C15.2374 16.6538 15.3949 15.9436 15.7148 15.2829C16.0302 14.6277 16.4693 14.0574 17.0234 13.577C17.582 13.0966 18.2363 12.7215 18.9859 12.4564C19.4038 12.3083 19.8408 12.2011 20.2954 12.1348V10.1551H22.3939V12.0872C22.5718 12.0985 22.7474 12.1131 22.9203 12.1307C23.4076 12.1762 23.8755 12.2461 24.3292 12.331C24.778 12.416 25.2127 12.5113 25.6328 12.6162C26.053 12.7216 26.4586 12.8265 26.8502 12.9213V17.8198H25.3606L24.8496 15.213C24.8306 15.0877 24.7589 14.9628 24.6251 14.843C24.4961 14.7226 24.3768 14.6277 24.2766 14.5578C24.1237 14.4424 23.9522 14.3326 23.7561 14.2322C23.5606 14.1323 23.3409 14.0424 23.1068 13.962C22.8831 13.8872 22.6467 13.8253 22.3939 13.7809V20.6633C22.7016 20.7786 23.017 20.8985 23.336 21.0269C23.6844 21.1669 24.0524 21.3171 24.444 21.4874C24.8687 21.6722 25.2843 21.9025 25.6899 22.1676C26.0961 22.4328 26.4637 22.7629 26.7931 23.1484C27.1179 23.5334 27.3807 23.9889 27.5762 24.5092C27.7722 25.0296 27.8675 25.6399 27.8675 26.3455C27.8675 27.0711 27.7337 27.7813 27.4664 28.4719C27.1992 29.1621 26.779 29.7728 26.2059 30.3032C25.6328 30.8385 24.8927 31.2686 23.9903 31.5942C23.5093 31.7672 22.9766 31.8938 22.3939 31.9742V33.8673H20.2954V32.0673C19.9945 32.0519 19.6842 32.0205 19.368 31.9742C18.8901 31.8993 18.3983 31.8089 17.8969 31.694C17.3955 31.5741 16.8941 31.4438 16.3882 31.299C15.8818 31.1487 15.3804 31.0034 14.8791 30.8635L14.8027 25.7452ZM22.3939 30.321C22.5269 30.2923 22.6562 30.26 22.7819 30.2228C23.3119 30.068 23.7611 29.8428 24.1237 29.5477C24.4866 29.2575 24.7685 28.8969 24.9645 28.482C25.16 28.0615 25.2558 27.5914 25.2558 27.0661C25.2558 26.2806 25.0312 25.6299 24.5824 25.1095C24.1332 24.5892 23.5315 24.1641 22.7724 23.8336C22.6462 23.7782 22.5201 23.7242 22.3939 23.6724V30.321ZM20.2954 13.8163C20.1511 13.8458 20.0118 13.8807 19.8789 13.9221C19.4061 14.0624 19.0049 14.2572 18.68 14.5024C18.3556 14.7526 18.107 15.0428 17.9355 15.3733C17.7635 15.7084 17.6822 16.0685 17.6822 16.459C17.6822 16.8041 17.7204 17.1442 17.8016 17.4693C17.8828 17.7999 18.0212 18.11 18.2218 18.4052C18.4223 18.7003 18.6895 18.9705 19.024 19.2256C19.3566 19.4795 19.7835 19.7038 20.2954 19.8981V13.8163Z" fill="#013D62"/>
</g>
<defs>
<clipPath id="clip0_297_8470">
<rect width="131.995" height="44.66" fill="white"/>
</clipPath>
</defs>
</svg>
