<?xml version="1.0" encoding="UTF-8"?>
<!DOCTYPE svg PUBLIC "-//W3C//DTD SVG 1.1//EN" "http://www.w3.org/Graphics/SVG/1.1/DTD/svg11.dtd">
<!-- Creator: CorelDRAW X8 -->
<svg xmlns="http://www.w3.org/2000/svg" xml:space="preserve" width="3508px" height="2480px" version="1.1" style="shape-rendering:geometricPrecision; text-rendering:geometricPrecision; image-rendering:optimizeQuality; fill-rule:evenodd; clip-rule:evenodd"
viewBox="0 0 350800 248040"
 xmlns:xlink="http://www.w3.org/1999/xlink">
 <defs>
  <style type="text/css">
   <![CDATA[
    .fil0 {fill:#013D62}
    .fil5 {fill:#013D62}
    .fil3 {fill:#C41E0F}
    .fil4 {fill:#C41E0F}
    .fil1 {fill:#FF4736}
    .fil2 {fill:#C41E0F;fill-rule:nonzero}
   ]]>
  </style>
 </defs>
 <g id="Слой_x0020_1">
  <metadata id="CorelCorpID_0Corel-Layer"/>
  <path class="fil0" d="M161584 116138c1291,-1166 1936,-2748 1936,-4746 0,-1013 -162,-1915 -485,-2705 -322,-784 -805,-1464 -1450,-2038 -650,-580 -1448,-1037 -2393,-1373 -959,-339 -2069,-554 -3330,-644l-303 -21 0 -1628 -3307 0 0 1626 -301 23c-1268,97 -2383,318 -3343,662 -950,339 -1747,798 -2392,1376 -641,574 -1122,1253 -1442,2034 -322,786 -483,1682 -483,2688 0,1006 162,1902 486,2686 322,779 805,1454 1448,2024 650,575 1448,1032 2395,1369 959,342 2069,562 3331,659l301 23 0 1741 3307 0 0 -1746 307 -18c1261,-75 2370,-280 3327,-616 944,-331 1741,-790 2391,-1376zm-3895 -1301c-503,194 -1092,330 -1767,410l-363 42 0 -7795 364 44c661,80 1241,214 1737,403 511,194 936,447 1276,758 691,630 1037,1520 1037,2671 0,565 -83,1070 -247,1516 -169,455 -423,846 -761,1171 -334,321 -760,581 -1276,780zm-9592 -1945c-172,-440 -258,-940 -258,-1500 0,-571 81,-1080 244,-1526 167,-456 419,-844 755,-1162 331,-314 755,-568 1273,-763 504,-189 1097,-323 1779,-403l362 -42 0 7776 -369 -49c-653,-88 -1227,-228 -1721,-421 -508,-198 -933,-452 -1275,-760 -351,-317 -615,-701 -790,-1150zm21941 -9153l-3613 0 0 15398 3591 0 6798 -10144 0 10144 3613 0 0 -15398 -3570 0 -6819 10167 0 -10167zm28236 15398l0 -15398 -3679 0 0 6030 -6557 0 0 -6030 -3679 0 0 15398 3679 0 0 -6259 6557 0 0 6259 3679 0zm7697 -3118l6696 0 1203 3118 3793 0 -6505 -15398 -3835 0 -6484 15398 3706 0 1203 -3118 223 0zm3541 -8273l2137 5577 -4884 0 2442 -6371 305 794zm24631 11391l0 -15398 -3679 0 0 6030 -6557 0 0 -6030 -3679 0 0 15398 3679 0 0 -6259 6557 0 0 6259 3679 0zm8859 65c692,171 1428,256 2206,256 681,0 1325,-62 1930,-187 605,-124 1177,-312 1717,-562 538,-248 1029,-552 1475,-909 373,-300 714,-636 1022,-1010l-2290 -2172c-465,530 -972,938 -1522,1225 -649,338 -1354,507 -2114,507 -439,0 -859,-52 -1258,-155l-2 0c-398,-103 -773,-258 -1124,-464 -352,-208 -665,-458 -938,-750 -270,-289 -502,-623 -696,-999 -191,-372 -334,-772 -430,-1198 -95,-426 -142,-874 -142,-1346 0,-471 47,-919 142,-1345 96,-426 239,-826 430,-1198 194,-376 426,-710 696,-1000 273,-292 586,-541 938,-749 351,-206 726,-362 1124,-464 400,-104 820,-155 1260,-155 760,0 1465,169 2114,507 550,286 1057,695 1523,1225l2289 -2172c-308,-374 -649,-711 -1022,-1010 -446,-358 -937,-661 -1475,-910 -1078,-499 -2294,-749 -3647,-749 -778,0 -1513,86 -2206,257 -692,170 -1344,426 -1956,767 -612,341 -1158,749 -1639,1224 -481,474 -896,1016 -1245,1623 -349,607 -611,1256 -786,1947 -175,691 -263,1426 -263,2202 0,777 88,1511 263,2203 175,691 437,1340 786,1946 349,608 764,1149 1245,1624 481,474 1027,882 1639,1223 612,341 1264,597 1956,768zm15704 -3c700,173 1442,259 2227,259 785,0 1528,-86 2227,-259 700,-172 1359,-431 1979,-776 619,-345 1172,-756 1657,-1232 486,-476 906,-1019 1259,-1628 354,-610 620,-1257 796,-1941 176,-684 264,-1413 264,-2184 0,-771 -88,-1499 -264,-2184 -176,-683 -442,-1331 -796,-1940 -353,-609 -773,-1152 -1259,-1628 -485,-476 -1038,-887 -1657,-1232 -620,-345 -1280,-604 -1979,-777 -699,-172 -1442,-259 -2227,-259 -785,0 -1527,87 -2227,259 -699,173 -1359,432 -1978,777 -620,345 -1173,756 -1658,1232 -486,476 -906,1019 -1259,1628 -354,609 -619,1257 -795,1940 -177,685 -265,1413 -265,2184 0,771 88,1500 265,2184 176,684 441,1331 795,1941 353,609 773,1152 1259,1628 485,476 1038,887 1658,1232 619,345 1279,604 1978,776zm3417 -3005c-381,104 -778,156 -1190,156 -412,0 -809,-52 -1190,-156 -380,-104 -740,-259 -1079,-466 -340,-207 -644,-456 -912,-748 -266,-289 -497,-621 -694,-995 -195,-373 -342,-774 -439,-1200 -97,-425 -145,-874 -145,-1347 0,-472 48,-921 145,-1346 97,-427 244,-827 439,-1200 197,-374 428,-706 694,-995 268,-292 572,-542 912,-749 339,-206 699,-361 1079,-465 381,-104 778,-156 1190,-156 412,0 809,52 1190,156 381,104 741,259 1079,465 340,207 644,457 912,749 266,289 497,621 694,995 195,373 342,773 439,1199 97,426 146,875 146,1347 0,473 -49,922 -146,1347 -97,426 -244,827 -439,1200 -197,374 -428,706 -694,995 -268,292 -572,541 -912,748 -339,207 -698,362 -1079,466zm21801 -4270c-319,-219 -690,-401 -1115,-545l-719 -243 673 -352c309,-162 582,-352 819,-571 234,-216 433,-459 595,-730 163,-271 285,-564 366,-878 82,-314 123,-654 123,-1019 0,-615 -116,-1157 -346,-1624 -229,-465 -575,-863 -1038,-1195 -957,-685 -2319,-1028 -4086,-1028l-7111 0 0 15398 7526 0c944,0 1775,-98 2493,-294 707,-192 1308,-480 1803,-864 487,-376 852,-821 1094,-1334 243,-515 365,-1104 365,-1767 0,-878 -216,-1608 -646,-2191 -216,-292 -481,-547 -796,-763zm-5144 -1765l-3082 0 0 -3816 3082 0c692,0 1222,159 1590,476 382,328 573,805 573,1432 0,1272 -721,1908 -2163,1908zm2283 5873c-375,334 -918,501 -1627,501l-3738 0 0 -3953 3738 0c1471,0 2207,651 2207,1954 0,655 -193,1154 -580,1498zm17181 -6865c-694,-209 -1496,-315 -2404,-315l-3870 0 0 -5113 -3613 0 0 15398 6914 0c983,0 1853,-117 2611,-351 747,-231 1389,-577 1924,-1037 528,-454 924,-1010 1189,-1668 268,-667 402,-1443 402,-2327 0,-824 -120,-1542 -360,-2154 -235,-602 -588,-1105 -1058,-1510 -475,-409 -1053,-717 -1735,-923zm-2168 7193c-325,115 -688,173 -1089,173l-3017 0 0 -5100 3017 0c875,0 1542,202 2001,604 472,412 708,1016 708,1809 0,412 -60,782 -181,1109 -125,337 -313,627 -564,868 -249,239 -541,418 -875,537zm11270 -12621l-3613 0 0 15398 3613 0 0 -15398zm7568 0l-3614 0 0 15398 3592 0 6797 -10144 0 10144 3614 0 0 -15398 -3570 0 -6819 10167 0 -10167zm1443 -1837c536,148 1177,222 1923,222 754,0 1402,-74 1943,-222 524,-143 951,-357 1279,-639 589,-506 912,-1248 970,-2224l-2273 0c-22,175 -58,335 -109,480 -85,246 -212,452 -378,617 -327,323 -805,485 -1432,485 -305,0 -572,-38 -802,-114 -248,-82 -453,-208 -615,-378 -158,-165 -277,-371 -358,-615 -47,-143 -81,-302 -102,-475l-2272 0c26,445 105,840 239,1185 160,416 401,763 721,1041 324,281 746,494 1266,637zm-163709 30080l4355 0 0 -2948 -12996 0 0 2948 4702 0 0 12450 3613 0 0 -12450 326 0zm18637 12450l0 -2856 -8005 0 0 -3587 6802 0 0 -2741 -6802 0 0 -3358 7720 0 0 -2856 -11355 0 0 15398 11640 0zm13266 -14708c-976,-460 -2133,-690 -3470,-690l-6673 0 0 15398 3679 0 0 -4196 2994 0c671,0 1297,-58 1877,-174 577,-115 1108,-287 1593,-516 484,-228 911,-504 1282,-826 368,-320 683,-688 943,-1104 260,-416 455,-870 585,-1362 131,-494 196,-1030 196,-1608 0,-577 -65,-1114 -196,-1610 -131,-495 -326,-953 -585,-1372 -260,-418 -575,-789 -944,-1112 -370,-323 -797,-599 -1281,-828zm-2468 7421c-367,111 -788,166 -1264,166l-2732 0 0 -5352 2732 0c475,0 897,57 1265,170 382,118 704,296 966,534 263,241 460,531 592,869 128,330 193,701 193,1114 0,415 -65,786 -193,1113 -131,336 -330,623 -595,861 -262,235 -584,410 -964,525zm11071 4169l6696 0 1203 3118 3793 0 -6505 -15398 -3835 0 -6484 15398 3707 0 1202 -3118 223 0zm3541 -8274l2138 5578 -4884 0 2442 -6371 304 793zm24435 11392l0 -15398 -13718 0 0 15398 3613 0 0 -12450 6469 0 0 12450 3636 0zm15572 0l0 -2856 -8005 0 0 -3587 6802 0 0 -2741 -6802 0 0 -3358 7721 0 0 -2856 -11356 0 0 15398 11640 0zm14962 -7214c-319,-219 -691,-400 -1115,-544l-719 -243 673 -352c309,-162 582,-352 819,-571 234,-216 433,-460 595,-730 163,-272 285,-565 366,-878 82,-314 123,-654 123,-1019 0,-615 -116,-1157 -346,-1624 -229,-465 -575,-863 -1038,-1195 -957,-685 -2319,-1028 -4086,-1028l-7111 0 0 15398 7526 0c944,0 1775,-98 2493,-294 707,-193 1308,-481 1803,-864 487,-377 852,-822 1094,-1335 243,-515 365,-1104 365,-1767 0,-877 -216,-1608 -646,-2191 -216,-292 -481,-546 -796,-763zm-5144 -1764l-3082 0 0 -3816 3082 0c692,0 1222,159 1590,475 382,328 573,806 573,1433 0,1272 -721,1908 -2163,1908zm2283 5873c-375,334 -918,501 -1627,501l-3738 0 0 -3953 3738 0c1471,0 2207,651 2207,1953 0,655 -193,1155 -580,1499zm14405 -9345l4355 0 0 -2948 -12997 0 0 2948 4703 0 0 12450 3613 0 0 -12450 326 0z"/>
  <path class="fil1" d="M67317 75562l30967 0c1039,0 1890,850 1890,1890l0 24657c52,953 716,1590 1477,1618l25762 0c1218,0 2214,996 2214,2214l0 36276c0,1218 -996,2214 -2214,2214l-25746 0c-849,36 -1456,654 -1493,1621l0 24655c0,1039 -851,1890 -1890,1890l-30967 0c-1040,0 -1890,-851 -1890,-1890l0 -24671c-173,-949 -674,-1547 -1491,-1605l-25749 0c-1217,0 -2214,-996 -2214,-2214l0 -36276c0,-1218 997,-2214 2214,-2214l25765 0c812,-62 1409,-655 1475,-1602l0 -24673c0,-1040 850,-1890 1890,-1890z"/>
  <g id="_2431123964320">
   <path class="fil2" d="M53976 108916c527,0 1004,214 1350,560l1 2c346,345 560,823 560,1349 0,526 -214,1003 -560,1349l-1 2c-346,345 -823,559 -1350,559 -526,0 -1003,-214 -1349,-559l-1 -2c-346,-346 -560,-823 -560,-1349 0,-526 214,-1004 560,-1349l1 -2c346,-346 823,-560 1349,-560zm763 1148c-195,-194 -465,-314 -763,-314 -298,0 -567,120 -762,314 -194,195 -315,465 -315,763 0,298 121,568 315,762 195,195 464,315 762,315 298,0 568,-120 763,-315 194,-194 315,-464 315,-762 0,-298 -121,-568 -315,-763z"/>
   <polygon class="fil2" points="52483,111244 35992,111244 35992,110410 52483,110410 "/>
   <path class="fil2" d="M48234 116209c526,0 1003,214 1349,559l2 2c346,346 560,823 560,1349 0,527 -214,1004 -560,1350l-2 1c-346,346 -823,560 -1349,560 -526,0 -1003,-214 -1349,-560l-2 -1c-345,-346 -559,-823 -559,-1350 0,-526 214,-1003 559,-1349l2 -2c346,-345 823,-559 1349,-559zm763 1148c-195,-195 -465,-315 -763,-315 -298,0 -568,120 -762,315 -195,195 -315,464 -315,762 0,298 120,568 315,763 194,194 464,314 762,314 298,0 568,-120 763,-314 194,-195 314,-465 314,-763 0,-298 -120,-567 -314,-762z"/>
   <polygon class="fil2" points="46852,118536 35917,118536 35917,117703 46852,117703 "/>
   <polygon class="fil2" points="35973,125061 52881,125061 52881,120679 72184,101118 72184,83983 73017,83983 73017,101457 53715,121018 53715,125894 35973,125894 "/>
   <path class="fil2" d="M72805 80644c526,0 1004,214 1350,559l1 2c346,346 560,823 560,1349 0,527 -214,1004 -560,1350l-1 1c-346,346 -824,560 -1350,560 -526,0 -1003,-214 -1349,-560l-2 -1c-345,-346 -559,-823 -559,-1350 0,-526 214,-1003 559,-1349l2 -2c346,-345 823,-559 1349,-559zm763 1148c-195,-195 -465,-315 -763,-315 -298,0 -567,120 -762,315 -195,195 -315,464 -315,762 0,298 120,568 315,763 195,194 464,314 762,314 298,0 568,-120 763,-314 194,-195 314,-465 314,-763 0,-298 -120,-567 -314,-762z"/>
   <polygon class="fil2" points="36015,132563 43431,132563 49916,139028 53261,139028 53261,139861 49575,139861 43091,133396 36015,133396 "/>
   <path class="fil2" d="M54850 137647c526,0 1003,214 1349,560l2 1c345,346 559,823 559,1350 0,526 -214,1003 -559,1349l-2 1c-346,346 -823,560 -1349,560 -526,0 -1003,-214 -1349,-560l-2 -1c-346,-346 -560,-823 -560,-1349 0,-527 214,-1004 560,-1350l2 -1c346,-346 823,-560 1349,-560zm762 1148c-194,-194 -464,-315 -762,-315 -298,0 -568,121 -763,315 -194,195 -314,464 -314,763 0,298 120,567 314,762 195,194 465,315 763,315 298,0 568,-121 762,-315 195,-195 315,-464 315,-762 0,-299 -120,-568 -315,-763z"/>
   <polygon class="fil2" points="43871,125098 51510,132776 57366,132776 59913,135255 59333,135850 57031,133609 51168,133609 43282,125684 "/>
   <path class="fil2" d="M60686 134806c526,0 1004,214 1349,560l2 2c346,346 560,823 560,1349 0,526 -214,1003 -560,1349l-2 2c-345,345 -823,559 -1349,559 -526,0 -1003,-214 -1349,-559l-2 -2c-345,-346 -559,-823 -559,-1349 0,-526 214,-1003 559,-1349l2 -2c346,-346 823,-560 1349,-560zm763 1148c-195,-194 -465,-314 -763,-314 -298,0 -568,120 -762,314 -195,195 -315,465 -315,763 0,298 120,568 315,762 194,195 464,315 762,315 298,0 568,-120 763,-315 194,-194 314,-464 314,-762 0,-298 -120,-568 -314,-763z"/>
   <path class="fil2" d="M57816 124065c526,0 1004,214 1349,559l2 2c346,346 560,823 560,1349 0,526 -214,1003 -560,1349l-2 2c-345,346 -823,560 -1349,560 -526,0 -1003,-214 -1349,-560l-2 -2c-345,-346 -559,-823 -559,-1349 0,-526 214,-1003 559,-1349l2 -2c346,-345 823,-559 1349,-559zm763 1148c-195,-195 -465,-315 -763,-315 -298,0 -568,120 -762,315 -195,194 -315,464 -315,762 0,298 120,568 315,763 194,194 464,314 762,314 298,0 568,-120 763,-314 194,-195 314,-465 314,-763 0,-298 -120,-568 -314,-762z"/>
   <polygon class="fil2" points="57452,124482 57452,121187 76145,102244 76137,89130 78893,86565 78893,81647 79726,81647 79726,86925 76968,89493 76975,102586 58285,121526 58285,124482 "/>
   <path class="fil2" d="M79451 78154c526,0 1004,214 1349,559l2 2c346,346 560,823 560,1349 0,526 -214,1003 -560,1349l-2 2c-345,345 -823,560 -1349,560 -526,0 -1003,-215 -1349,-560l-2 -2c-345,-346 -559,-823 -559,-1349 0,-526 214,-1003 559,-1349l2 -2c346,-345 823,-559 1349,-559zm763 1147c-195,-194 -465,-314 -763,-314 -298,0 -568,120 -762,314 -195,195 -315,465 -315,763 0,298 120,568 315,763 194,194 464,314 762,314 298,0 568,-120 763,-314 194,-195 314,-465 314,-763 0,-298 -120,-568 -314,-763z"/>
   <polygon class="fil2" points="89235,83094 82243,90148 82250,104579 66342,120737 66352,145064 65785,146060 65228,145359 65522,144843 65512,120396 81420,104238 81412,89806 88646,82508 "/>
   <path class="fil2" d="M90107 79751c526,0 1003,214 1349,559l2 2c345,346 559,823 559,1349 0,526 -214,1004 -559,1349l-2 2c-346,346 -823,560 -1349,560 -526,0 -1004,-214 -1349,-560l-2 -2c-346,-345 -560,-823 -560,-1349 0,-526 214,-1003 560,-1349l2 -2c345,-345 823,-559 1349,-559zm762 1148c-194,-195 -464,-315 -762,-315 -298,0 -568,120 -763,315 -194,194 -314,464 -314,762 0,298 120,568 314,763 195,194 465,314 763,314 298,0 568,-120 762,-314 195,-195 315,-465 315,-763 0,-298 -120,-568 -315,-762z"/>
   <polygon class="fil2" points="93112,89456 88293,94127 88301,104919 78018,115455 77422,114875 87471,104580 87463,93774 92533,88860 "/>
   <path class="fil2" d="M94067 86137c526,0 1003,214 1349,560l2 2c345,346 559,823 559,1349 0,526 -214,1003 -559,1349l-2 2c-346,345 -823,559 -1349,559 -526,0 -1003,-214 -1349,-559l-2 -2c-346,-346 -560,-823 -560,-1349 0,-526 214,-1003 560,-1349l2 -2c346,-346 823,-560 1349,-560zm763 1148c-195,-194 -465,-314 -763,-314 -298,0 -568,120 -763,314 -194,195 -314,465 -314,763 0,298 120,568 314,763 195,194 465,314 763,314 298,0 568,-120 763,-314 194,-195 314,-465 314,-763 0,-298 -120,-568 -314,-763z"/>
   <path class="fil2" d="M76458 114349c526,0 1003,214 1349,559l2 2c345,346 559,823 559,1349 0,527 -214,1004 -559,1350l-2 1c-346,346 -823,560 -1349,560 -526,0 -1004,-214 -1349,-560l-2 -1c-346,-346 -560,-823 -560,-1350 0,-526 214,-1003 560,-1349l2 -2c345,-345 823,-559 1349,-559zm762 1148c-194,-194 -464,-315 -762,-315 -298,0 -568,121 -763,315 -194,195 -314,464 -314,762 0,298 120,568 314,763 195,194 465,314 763,314 298,0 568,-120 762,-314 195,-195 315,-465 315,-763 0,-298 -120,-567 -315,-762z"/>
   <polygon class="fil2" points="94190,98606 94197,108999 73678,129770 73086,129188 93367,108658 93360,98606 "/>
   <path class="fil2" d="M93858 95355c526,0 1003,214 1349,560l1 1c346,346 560,823 560,1350 0,526 -214,1003 -560,1349l-1 1c-346,346 -823,560 -1349,560 -527,0 -1004,-214 -1350,-560l-1 -1c-346,-346 -560,-823 -560,-1349 0,-527 214,-1004 560,-1350l1 -1c346,-346 823,-560 1350,-560zm762 1148c-195,-194 -464,-315 -762,-315 -299,0 -568,121 -763,315 -194,195 -315,464 -315,763 0,298 121,567 315,762 195,194 464,315 763,315 298,0 567,-121 762,-315 194,-195 315,-464 315,-762 0,-299 -121,-568 -315,-763z"/>
   <path class="fil2" d="M72338 128777c526,0 1004,214 1349,560l2 1c346,346 560,823 560,1350 0,526 -214,1003 -560,1349l-2 2c-345,345 -823,559 -1349,559 -526,0 -1003,-214 -1349,-559l-2 -2c-345,-346 -559,-823 -559,-1349 0,-527 214,-1004 559,-1350l2 -1c346,-346 823,-560 1349,-560zm763 1148c-195,-194 -465,-314 -763,-314 -298,0 -568,120 -762,314 -195,195 -315,465 -315,763 0,298 120,567 315,762 194,194 464,315 762,315 298,0 568,-121 763,-315 194,-195 314,-464 314,-762 0,-298 -120,-568 -314,-763z"/>
   <path class="fil2" d="M72338 148087c526,0 1004,214 1349,559l2 2c346,346 560,823 560,1349 0,527 -214,1004 -560,1350l-2 1c-345,346 -823,560 -1349,560 -526,0 -1003,-214 -1349,-560l-2 -1c-345,-346 -559,-823 -559,-1350 0,-526 214,-1003 559,-1349l2 -2c346,-345 823,-559 1349,-559zm763 1148c-195,-194 -465,-315 -763,-315 -298,0 -568,121 -762,315 -195,195 -315,464 -315,762 0,298 120,568 315,763 194,194 464,314 762,314 298,0 568,-120 763,-314 194,-195 314,-465 314,-763 0,-298 -120,-567 -314,-762z"/>
   <polygon class="fil2" points="71921,148504 71921,132181 72755,132181 72755,148504 "/>
   <path class="fil2" d="M72338 158312c526,0 1004,214 1349,560l2 1c346,346 560,823 560,1350 0,526 -214,1003 -560,1349l-2 2c-345,345 -823,559 -1349,559 -526,0 -1003,-214 -1349,-559l-2 -2c-345,-346 -559,-823 -559,-1349 0,-527 214,-1004 559,-1350l2 -1c346,-346 823,-560 1349,-560zm763 1148c-195,-194 -465,-314 -763,-314 -298,0 -568,120 -762,314 -195,195 -315,465 -315,763 0,298 120,567 315,762 194,194 464,315 762,315 298,0 568,-121 763,-315 194,-195 314,-464 314,-762 0,-298 -120,-568 -314,-763z"/>
   <polygon class="fil2" points="99192,111399 80606,130212 80606,152628 73776,159550 73183,158968 79773,152290 79773,129874 98600,110816 "/>
   <path class="fil2" d="M100052 108280c526,0 1003,214 1349,560l2 1c345,346 559,823 559,1349 0,527 -214,1004 -559,1350l-2 1c-346,346 -823,560 -1349,560 -526,0 -1004,-214 -1349,-560l-2 -1c-346,-346 -560,-823 -560,-1350 0,-526 214,-1003 560,-1349l2 -1c345,-346 823,-560 1349,-560zm762 1148c-194,-194 -464,-315 -762,-315 -298,0 -568,121 -763,315 -194,195 -314,464 -314,762 0,298 120,568 314,763 195,194 465,314 763,314 298,0 568,-120 762,-314 195,-195 315,-465 315,-763 0,-298 -120,-567 -315,-762z"/>
   <polygon class="fil2" points="104981,119690 85243,139666 85243,145740 84410,145740 84410,139328 104389,119108 "/>
   <path class="fil2" d="M84839 145343c526,0 1003,214 1349,559l2 2c345,346 559,823 559,1349 0,526 -214,1003 -559,1349l-2 2c-346,346 -823,560 -1349,560 -527,0 -1004,-214 -1350,-560l-1 -2c-346,-346 -560,-823 -560,-1349 0,-526 214,-1003 560,-1349l1 -2c346,-345 823,-559 1350,-559zm762 1148c-195,-195 -464,-315 -762,-315 -298,0 -568,120 -763,315 -194,194 -314,464 -314,762 0,298 120,568 314,763 195,194 465,314 763,314 298,0 567,-120 762,-314 195,-195 315,-465 315,-763 0,-298 -120,-568 -315,-762z"/>
   <path class="fil2" d="M105941 116293c526,0 1003,214 1349,559l1 2c346,346 560,823 560,1349 0,527 -214,1004 -560,1350l-1 1c-346,346 -823,560 -1349,560 -527,0 -1004,-214 -1350,-560l-1 -1c-346,-346 -560,-823 -560,-1350 0,-526 214,-1003 560,-1349l1 -2c346,-345 823,-559 1350,-559zm762 1148c-195,-195 -464,-315 -762,-315 -299,0 -568,120 -763,315 -194,195 -315,464 -315,762 0,298 121,568 315,763 195,194 464,314 763,314 298,0 567,-120 762,-314 194,-195 315,-465 315,-763 0,-298 -121,-567 -315,-762z"/>
   <polygon class="fil2" points="80044,172597 80044,161068 89566,151307 89566,144444 100193,133816 100782,134406 90399,144789 90399,151643 80877,161404 80877,172597 "/>
   <path class="fil2" d="M101630 131054c526,0 1004,214 1349,560l2 1c346,346 560,823 560,1350 0,526 -214,1003 -560,1349l-2 1c-345,346 -823,560 -1349,560 -526,0 -1003,-214 -1349,-560l-2 -1c-345,-346 -559,-823 -559,-1349 0,-527 214,-1004 559,-1350l2 -1c346,-346 823,-560 1349,-560zm763 1148c-195,-194 -465,-315 -763,-315 -298,0 -568,121 -762,315 -195,195 -315,464 -315,763 0,298 120,567 315,762 194,194 464,315 762,315 298,0 568,-121 763,-315 194,-195 314,-464 314,-762 0,-299 -120,-568 -314,-763z"/>
   <polygon class="fil2" points="90879,164510 90879,158713 94346,155246 94346,144697 113556,125193 113556,112209 114389,112209 114389,125531 95179,145035 95179,155591 91712,159058 91712,164510 "/>
   <path class="fil2" d="M113935 108726c526,0 1003,214 1349,560l2 1c345,346 559,823 559,1350 0,526 -214,1003 -559,1349l-2 2c-346,345 -823,559 -1349,559 -527,0 -1004,-214 -1350,-559l-1 -2c-346,-346 -560,-823 -560,-1349 0,-527 214,-1004 560,-1350l1 -1c346,-346 823,-560 1350,-560zm762 1148c-195,-194 -464,-314 -762,-314 -298,0 -568,120 -763,314 -194,195 -314,465 -314,763 0,298 120,567 314,762 195,194 465,315 763,315 298,0 567,-121 762,-315 194,-195 315,-464 315,-762 0,-298 -121,-568 -315,-763z"/>
   <path class="fil2" d="M91278 164236c526,0 1004,214 1349,560l2 2c346,346 560,823 560,1349 0,526 -214,1003 -560,1349l-2 2c-345,345 -823,559 -1349,559 -526,0 -1003,-214 -1349,-559l-2 -2c-345,-346 -559,-823 -559,-1349 0,-526 214,-1003 559,-1349l2 -2c346,-346 823,-560 1349,-560zm763 1148c-195,-194 -465,-314 -763,-314 -298,0 -567,120 -762,314 -195,195 -315,465 -315,763 0,298 120,568 315,762 195,195 464,315 762,315 298,0 568,-120 763,-315 194,-194 314,-464 314,-762 0,-298 -120,-568 -314,-763z"/>
   <path class="fil2" d="M114717 134001c526,0 1003,214 1349,560l1 2c346,346 560,823 560,1349 0,526 -214,1003 -560,1349l-1 2c-346,345 -823,559 -1349,559 -527,0 -1004,-214 -1350,-559l-1 -2c-346,-346 -560,-823 -560,-1349 0,-526 214,-1003 560,-1349l1 -2c346,-346 823,-560 1350,-560zm762 1148c-195,-194 -464,-314 -762,-314 -299,0 -568,120 -763,314 -194,195 -315,465 -315,763 0,298 121,568 315,763 195,194 464,314 763,314 298,0 567,-120 762,-314 194,-195 315,-465 315,-763 0,-298 -121,-568 -315,-763z"/>
   <polygon class="fil2" points="114046,137202 107039,144430 105882,144430 113450,136623 "/>
   <path class="fil3" d="M65228 145359c512,-77 704,171 557,701 -104,144 -223,341 -358,593 20,-508 -17,-933 -199,-1294z"/>
  </g>
  <path class="fil4" d="M70587 133587l3315 0 1179 6105c32,275 200,551 505,837 295,287 547,496 758,639 515,375 1094,727 1705,1058 620,330 1262,628 1925,882 663,264 1358,462 2074,628 214,45 429,84 644,116l0 -16526c-549,-198 -1091,-398 -1634,-592 -768,-276 -1515,-562 -2252,-882 -2262,-981 -4041,-2358 -5325,-4143 -1294,-1774 -1936,-3934 -1936,-6457 0,-1686 347,-3251 1052,-4705 695,-1444 1663,-2700 2884,-3758 1231,-1057 2673,-1884 4325,-2468 921,-325 1884,-562 2886,-707l0 -4360 4626 0 0 4254c391,26 778,58 1160,97 1073,99 2104,253 3104,441 989,187 1947,396 2873,628 926,231 1821,463 2684,672l0 10787 -3284 0 -1126 -5740c-42,-276 -200,-551 -494,-816 -285,-264 -548,-474 -769,-628 -336,-253 -715,-496 -1147,-716 -431,-220 -915,-419 -1431,-595 -493,-165 -1013,-301 -1570,-400l0 15158c677,254 1372,518 2075,800 768,309 1579,640 2442,1014 936,408 1852,915 2746,1499 895,584 1705,1311 2431,2159 716,849 1295,1852 1726,2998 432,1145 642,2490 642,4043 0,1598 -294,3163 -884,4683 -589,1521 -1515,2865 -2778,4033 -1263,1179 -2894,2127 -4883,2843 -1060,382 -2234,660 -3517,837l0 4169 -4626 0 0 -3963c-663,-35 -1347,-103 -2044,-205 -1052,-166 -2136,-364 -3241,-617 -1105,-265 -2210,-551 -3326,-871 -1115,-330 -2220,-650 -3325,-959l-169 -11272zm16731 10077c292,-62 577,-134 854,-215 1169,-341 2158,-837 2958,-1487 799,-640 1420,-1433 1852,-2347 431,-926 642,-1962 642,-3119 0,-1730 -495,-3162 -1484,-4308 -989,-1146 -2315,-2083 -3989,-2810 -277,-122 -556,-241 -833,-355l0 14641zm-4626 -36347c-318,64 -625,142 -918,233 -1042,308 -1926,738 -2641,1278 -716,551 -1263,1190 -1642,1917 -379,738 -558,1532 -558,2391 0,761 84,1510 263,2226 179,727 484,1410 926,2061 442,650 1032,1245 1768,1807 733,559 1674,1052 2802,1480l0 -13393z"/>
  <path class="fil5" d="M68541 132260l3315 0 1179 6104c31,275 200,551 505,837 295,287 547,496 758,640 515,374 1094,727 1704,1057 621,331 1263,628 1926,882 663,264 1358,463 2073,628 214,45 429,84 645,116l0 -16526c-550,-198 -1092,-398 -1634,-592 -768,-276 -1515,-562 -2252,-882 -2262,-980 -4041,-2358 -5325,-4143 -1294,-1774 -1936,-3933 -1936,-6457 0,-1686 347,-3250 1052,-4705 695,-1443 1663,-2699 2884,-3757 1231,-1058 2673,-1884 4325,-2468 921,-326 1884,-562 2886,-708l0 -4360 4625 0 0 4255c392,25 779,57 1160,96 1074,100 2105,254 3105,441 989,187 1947,397 2873,628 926,232 1820,463 2683,672l0 10788 -3283 0 -1126 -5741c-42,-276 -200,-551 -495,-815 -284,-265 -547,-474 -768,-628 -337,-254 -715,-496 -1147,-717 -431,-220 -915,-418 -1431,-595 -493,-165 -1014,-301 -1571,-399l0 15157c678,254 1373,518 2076,801 768,308 1579,639 2442,1014 936,407 1852,914 2746,1498 895,584 1705,1311 2431,2160 716,848 1295,1851 1726,2997 432,1146 642,2490 642,4044 0,1598 -295,3162 -884,4683 -589,1520 -1515,2865 -2778,4033 -1263,1179 -2894,2126 -4883,2843 -1060,381 -2234,660 -3518,837l0 4169 -4625 0 0 -3964c-663,-34 -1347,-103 -2044,-205 -1053,-165 -2137,-364 -3242,-617 -1105,-264 -2210,-551 -3325,-870 -1116,-331 -2221,-651 -3326,-959l-168 -11272zm16730 10077c293,-63 578,-134 855,-216 1168,-341 2158,-837 2957,-1487 800,-639 1421,-1433 1853,-2347 431,-926 642,-1961 642,-3118 0,-1730 -495,-3163 -1484,-4309 -990,-1146 -2316,-2082 -3989,-2810 -278,-122 -556,-241 -834,-355l0 14642zm-4625 -36348c-318,65 -625,142 -918,233 -1042,309 -1926,738 -2642,1278 -715,551 -1263,1190 -1641,1918 -379,738 -558,1531 -558,2391 0,760 84,1509 263,2225 179,728 484,1411 926,2061 442,650 1031,1245 1768,1807 733,559 1674,1053 2802,1481l0 -13394z"/>
 </g>
</svg>
